<svg width="64" height="64" viewBox="0 0 64 64" fill="none" xmlns="http://www.w3.org/2000/svg">
<path d="M56.2042 54.0641L58.8522 56.4108C59.7488 57.2053 59.1868 58.6869 57.9888 58.6869H43.6105C42.8915 58.6869 42.3086 58.104 42.3086 57.385V49.151H58.1396C59.3182 49.151 59.8902 50.5924 59.0321 51.4005L56.2042 54.0641Z" fill="#E84649"/>
<path d="M50.0492 49.151V51.2769C50.0492 52.9991 48.6485 54.4013 46.9248 54.4013H42.3086V49.151H50.0492Z" fill="#D73337"/>
<path d="M21.6905 49.151V57.385C21.6905 58.104 21.1077 58.6869 20.3887 58.6869H6.01042C4.81242 58.6869 4.25042 57.2054 5.14705 56.4108L7.79505 54.0641L4.96705 51.4005C4.10905 50.5924 4.68092 49.151 5.85955 49.151H21.6905Z" fill="#E84649"/>
<path d="M13.9502 49.151H21.6908V54.4013H17.0746C15.3509 54.4013 13.9502 52.9992 13.9502 51.2769V49.151Z" fill="#D73337"/>
<path d="M46.8099 48.0632C46.4461 48.0632 46.0976 47.8566 45.9338 47.5048C45.7086 47.0213 45.9181 46.4468 46.4016 46.2216C50.6341 44.2503 53.7509 41.4677 55.6653 37.951C57.2012 35.1295 57.9826 31.8151 57.9876 28.1002C57.9963 21.6732 55.6508 16.2213 55.6272 16.167C55.4139 15.6783 55.6369 15.1091 56.1256 14.8956C56.6139 14.6821 57.1831 14.9045 57.3968 15.393C57.4997 15.6277 59.9139 21.2212 59.9192 28.0416C59.9242 34.433 57.7246 43.0791 47.2169 47.9726C47.0852 48.034 46.9463 48.0632 46.8099 48.0632Z" fill="#83B832"/>
<path d="M56.5536 8.29939C57.6263 11.4058 57.9117 15.9223 56.5073 16.4073C55.1028 16.8923 52.5403 13.1623 51.4676 10.0559C50.3948 6.94952 51.2179 5.64302 52.6224 5.15802C54.0268 4.67289 55.4807 5.19302 56.5536 8.29939Z" fill="#BDEB73"/>
<path d="M56.5069 16.4067C56.1802 16.5199 55.7897 16.404 55.3692 16.1203C55.8171 14.4904 55.4551 11.3947 54.6558 9.08004C53.8071 6.62354 52.7201 5.78516 51.6069 5.78129C51.8803 5.49491 52.2279 5.29316 52.6223 5.15766C54.0269 4.67341 55.4811 5.19279 56.5538 8.29891C57.6266 11.4064 57.9117 15.9224 56.5069 16.4067Z" fill="#9AD63B"/>
<path d="M59.0053 28.4614C58.3571 28.9405 57.0122 28.3378 55.6063 27.265C54.4203 26.359 53.1902 25.1197 52.2958 23.9103C50.3418 21.2663 50.7362 19.7744 51.9313 18.8906C53.0926 18.0327 54.5831 18.0665 56.4603 20.4969C56.5149 20.5659 56.5683 20.6376 56.6231 20.7118C58.5757 23.3544 60.2003 27.5775 59.0053 28.4614Z" fill="#8EC737"/>
<path d="M59.0053 28.4614C58.3571 28.9406 57.0122 28.3378 55.6063 27.2651C55.5295 26.7104 55.5073 26.0843 55.54 25.3892C55.6116 23.8401 55.9501 22.0592 56.4603 20.4969C56.515 20.5659 56.5683 20.6376 56.6231 20.7118C58.5757 23.3544 60.2003 27.5776 59.0053 28.4614Z" fill="#83B832"/>
<path d="M58.4045 20.4634C57.2465 23.5391 56.8366 28.0459 58.2271 28.5694C59.6178 29.0931 62.2821 25.4351 63.4401 22.3594C64.5981 19.2838 63.8114 17.9552 62.4208 17.4316C61.0304 16.9081 59.5626 17.3878 58.4045 20.4634Z" fill="#BDEB73"/>
<path d="M63.4406 22.3598C62.282 25.4347 59.6185 29.0928 58.2269 28.5694C57.9028 28.4484 57.6775 28.1099 57.5356 27.6243C58.9234 26.6688 60.634 24.0404 61.501 21.7388C62.4136 19.3136 62.118 17.9753 61.2706 17.2606C61.6546 17.2202 62.0413 17.2879 62.4214 17.4311C63.8116 17.9558 64.598 19.2837 63.4406 22.3598Z" fill="#9AD63B"/>
<path d="M55.652 41.7074C54.867 41.8923 53.8698 40.8065 53.0015 39.2652C52.2686 37.9659 51.6281 36.34 51.2831 34.8768C50.5306 31.6783 51.4822 30.461 52.9286 30.1213C54.3358 29.7907 55.6923 30.4103 56.4578 33.3863C56.48 33.4709 56.5008 33.5568 56.5216 33.6453C57.2727 36.8452 57.0983 41.3663 55.652 41.7074Z" fill="#8EC737"/>
<path d="M55.652 41.7074C54.867 41.8922 53.8698 40.8065 53.0015 39.2651C53.1486 38.7249 53.3751 38.1416 53.6797 37.5155C54.358 36.12 55.3721 34.619 56.4578 33.3861C56.48 33.4707 56.5008 33.5566 56.5216 33.6451C57.2727 36.8451 57.0983 41.3662 55.652 41.7074Z" fill="#83B832"/>
<path d="M58.2562 34.121C55.9783 36.49 53.8232 40.4693 54.8942 41.4991C55.9653 42.529 59.857 40.2195 62.1348 37.8505C64.4127 35.4815 64.2141 33.9503 63.143 32.9204C62.072 31.8905 60.534 31.7521 58.2562 34.121Z" fill="#BDEB73"/>
<path d="M62.1349 37.8501C59.8568 40.2194 55.9657 42.5289 54.8942 41.4991C54.7288 41.3402 54.6403 41.1099 54.6182 40.8261C56.2714 40.3405 58.6355 38.7224 60.2199 37.0756C62.4382 34.7689 62.308 33.2561 61.3108 32.2264C62.0424 32.1535 62.6438 32.4399 63.1424 32.9202C64.2139 33.9499 64.4132 35.4821 62.1349 37.8501Z" fill="#9AD63B"/>
<path d="M17.1898 48.0632C17.0532 48.0632 16.9147 48.0342 16.7827 47.9727C6.2752 43.079 4.07557 34.4329 4.08057 28.0417C4.08582 21.2213 6.50008 15.6278 6.60295 15.393C6.81683 14.9045 7.38607 14.6817 7.87495 14.8957C8.36345 15.1095 8.5862 15.679 8.37232 16.1677C8.3357 16.252 6.00332 21.6913 6.0122 28.1003C6.0172 31.8152 6.7987 35.1294 8.33445 37.951C10.2488 41.4678 13.3656 44.2504 17.5982 46.2217C18.0817 46.4469 18.2912 47.0213 18.0659 47.5049C17.9022 47.8564 17.5538 48.0632 17.1898 48.0632Z" fill="#83B832"/>
<path d="M7.44603 8.29947C6.37328 11.4058 6.08791 15.9223 7.49228 16.4073C8.89666 16.8923 11.4593 13.1623 12.532 10.056C13.6048 6.94959 12.7817 5.64309 11.3772 5.15809C9.97266 4.67309 8.51891 5.19309 7.44603 8.29947Z" fill="#BDEB73"/>
<path d="M12.5319 10.0564C11.4591 13.1625 8.89724 16.8923 7.49249 16.4066C7.14749 16.2881 6.90411 15.9263 6.75049 15.4004C8.11736 14.4228 9.77199 11.7266 10.5805 9.38602C11.3902 7.04014 11.1195 5.72014 10.3331 5.00802C10.6794 4.97939 11.0296 5.03802 11.3771 5.15777C12.7819 5.64327 13.6045 6.94889 12.5319 10.0564Z" fill="#9AD63B"/>
<path d="M4.99411 28.4614C5.64236 28.9405 6.98724 28.3378 8.39311 27.265C9.57911 26.359 10.8092 25.1197 11.7036 23.9103C13.6576 21.2663 13.2632 19.7744 12.0681 18.8906C10.9069 18.0327 9.41636 18.0665 7.53911 20.4969C7.48449 20.5659 7.43111 20.6376 7.37636 20.7118C5.42374 23.3544 3.79911 27.5775 4.99411 28.4614Z" fill="#8EC737"/>
<path d="M11.7039 23.9103C10.8095 25.1197 9.57935 26.3591 8.39335 27.2651C6.98735 28.3378 5.6426 28.9406 4.99435 28.4614C4.8186 28.3313 4.70273 28.1269 4.6416 27.8678C5.18573 27.6308 5.79898 27.2468 6.42373 26.7704C7.60973 25.8643 8.83985 24.6251 9.73423 23.4157C11.657 20.8147 11.3055 19.3279 10.156 18.4402C10.8732 18.2709 11.5099 18.4779 12.0684 18.8907C13.2635 19.7744 13.6579 21.2663 11.7039 23.9103Z" fill="#83B832"/>
<path d="M4.99411 28.4614C5.64236 28.9406 6.98724 28.3378 8.39311 27.2651C8.46986 26.7104 8.49211 26.0843 8.45949 25.3892C8.38786 23.8401 8.04936 22.0592 7.53911 20.4969C7.48449 20.5659 7.43111 20.6376 7.37636 20.7118C5.42374 23.3544 3.79911 27.5776 4.99411 28.4614Z" fill="#83B832"/>
<path d="M5.59509 20.4636C6.75309 23.5392 7.16297 28.0461 5.77247 28.5696C4.38184 29.0932 1.71747 25.4352 0.559467 22.3596C-0.598533 19.284 0.188217 17.9553 1.57884 17.4317C2.96947 16.9081 4.43697 17.388 5.59509 20.4636Z" fill="#BDEB73"/>
<path d="M5.77262 28.5695C5.42237 28.701 4.9915 28.5683 4.52425 28.2454C5.032 26.6754 4.58412 23.4039 3.68062 21.0048C2.85662 18.8178 1.87762 17.9442 0.880371 17.8102C1.086 17.6513 1.32162 17.5277 1.57812 17.4313C2.9685 16.9079 4.43687 17.3883 5.59425 20.4632C6.75287 23.5393 7.16287 28.0462 5.77262 28.5695Z" fill="#9AD63B"/>
<path d="M8.34796 41.7074C9.13296 41.8923 10.1301 40.8065 10.9985 39.2652C11.7313 37.9659 12.3718 36.34 12.7168 34.8768C13.4693 31.6783 12.5177 30.461 11.0713 30.1213C9.66409 29.7907 8.30759 30.4103 7.54209 33.3863C7.51996 33.4709 7.49909 33.5568 7.47834 33.6453C6.72721 36.8452 6.90159 41.3663 8.34796 41.7074Z" fill="#8EC737"/>
<path d="M12.717 34.8768C12.372 36.34 11.7315 37.966 10.9987 39.2652C10.1304 40.8065 9.13317 41.8923 8.34817 41.7074C7.97842 41.6201 7.69205 41.2595 7.48242 40.718C7.99017 40.2845 8.51742 39.5633 9.00292 38.7002C9.7358 37.4009 10.3763 35.775 10.7213 34.3118C11.2668 31.9945 10.9165 30.7162 10.1329 30.06C10.4388 30.021 10.7539 30.047 11.0715 30.1212C12.5178 30.461 13.4694 31.6783 12.717 34.8768Z" fill="#83B832"/>
<path d="M8.34796 41.7074C9.13296 41.8922 10.1301 40.8065 10.9985 39.2651C10.8513 38.7249 10.6248 38.1416 10.3202 37.5155C9.64196 36.12 8.62784 34.619 7.54209 33.3861C7.51996 33.4707 7.49909 33.5566 7.47834 33.6451C6.72721 36.8451 6.90159 41.3662 8.34796 41.7074Z" fill="#83B832"/>
<path d="M5.7437 34.121C8.02158 36.49 10.1767 40.4693 9.1057 41.4991C8.0347 42.529 4.14295 40.2195 1.86508 37.8505C-0.412798 35.4815 -0.214173 33.9503 0.856952 32.9204C1.92808 31.8905 3.46595 31.7521 5.7437 34.121Z" fill="#BDEB73"/>
<path d="M9.10573 41.4991C8.76336 41.8285 8.13198 41.8168 7.35736 41.5694C7.64511 40.0918 5.74048 36.7735 3.74223 34.6957C2.64873 33.558 1.72573 32.9995 0.943359 32.8394C2.00948 31.8851 3.52611 31.8149 5.74311 34.1216C8.02136 36.4898 10.1771 40.4694 9.10573 41.4991Z" fill="#9AD63B"/>
<path d="M46.9256 52.5787H17.0738C16.3548 52.5787 15.772 51.9959 15.772 51.2769V41.729C15.772 41.01 16.3548 40.4271 17.0738 40.4271H46.9256C47.6446 40.4271 48.2275 41.01 48.2275 41.729V51.2769C48.2275 51.9959 47.6446 52.5787 46.9256 52.5787Z" fill="#ED6264"/>
<path d="M48.2268 41.7294V51.2769C48.2268 51.9955 47.6449 52.5787 46.925 52.5787H43.8696C44.5895 52.5787 45.1715 51.9955 45.1715 51.2769V41.7294C45.1715 41.0095 44.5896 40.4275 43.8696 40.4275H46.925C47.6449 40.4275 48.2268 41.0095 48.2268 41.7294Z" fill="#E84649"/>
<path d="M36.8432 39.676C36.8432 40.8683 36.4116 41.9618 35.6965 42.8055C34.8071 43.8535 33.481 44.5191 32 44.5191C30.5191 44.5191 29.1929 43.8534 28.3035 42.8055C27.5884 41.9616 27.1567 40.8683 27.1567 39.676C27.1567 37.0015 29.3255 34.8328 32 34.8328C34.6745 34.8328 36.8432 37.0015 36.8432 39.676Z" fill="#FFDBAA"/>
<path d="M36.8432 39.676C36.8432 40.8683 36.4116 41.9618 35.6965 42.8055L32 40.8618L28.3035 42.8055C27.5884 41.9616 27.1567 40.8683 27.1567 39.676C27.1567 37.0015 29.3255 34.8328 32 34.8328C34.6745 34.8328 36.8432 37.0015 36.8432 39.676Z" fill="#FFC26D"/>
<path d="M46.9402 26.3836L40.6252 32.5372L42.1158 41.2283C42.3388 42.53 40.9734 43.5216 39.8034 42.908L31.9998 38.8056L24.1962 42.9081C23.0262 43.5217 21.6608 42.5301 21.8838 41.2285L22.6907 36.523L23.3744 32.5373L17.0594 26.3837C16.1144 25.4622 16.6369 23.8547 17.9428 23.6657L26.6679 22.3981L30.5708 14.4905C31.1548 13.3056 32.8449 13.3056 33.4289 14.4905L37.3318 22.3981L40.2388 22.8206L46.0569 23.6657C47.3628 23.8546 47.8852 25.4621 46.9402 26.3836Z" fill="#FFCE8B"/>
<path d="M46.9404 26.3836L40.6254 32.5372L42.116 41.2283C42.339 42.5299 40.9736 43.5216 39.8036 42.9079L32 38.8056L24.1964 42.9081C23.0264 43.5217 21.661 42.5301 21.884 41.2284L22.6909 36.5229C34.8007 34.3124 38.8905 27.6641 40.2389 22.8204L46.057 23.6656C47.363 23.8546 47.8854 25.4621 46.9404 26.3836Z" fill="#FFB54E"/>
<path d="M39.6201 48.9632H24.3798C23.8463 48.9632 23.4141 48.5309 23.4141 47.9975C23.4141 47.4641 23.8464 47.0317 24.3798 47.0317H39.6201C40.1536 47.0317 40.5858 47.4641 40.5858 47.9975C40.5858 48.5309 40.1534 48.9632 39.6201 48.9632Z" fill="#FFCE8B"/>
</svg>
