<svg width="64" height="64" viewBox="0 0 64 64" fill="none" xmlns="http://www.w3.org/2000/svg">
<path d="M58.6851 50.3434C55.141 48.1586 53.519 41.2668 53.519 38.97V29.3144C53.519 18.7967 45.9747 10.0471 36.0037 8.168C36.268 7.82563 36.493 7.45013 36.6641 7.04338C36.9221 6.43675 37.0637 5.7655 37.0637 5.07013C37.0646 4.02525 36.7438 3.04137 36.1972 2.23487C35.6506 1.42562 34.8798 0.785875 33.9686 0.399625C33.3612 0.141625 32.69 0 31.9946 0C30.9506 0 29.9667 0.32075 29.1593 0.867375C28.351 1.41313 27.7103 2.18475 27.3241 3.096C27.0668 3.70362 26.9253 4.37388 26.9253 5.07013C26.9245 6.11312 27.2461 7.098 27.7918 7.90538C27.8527 7.995 27.9173 8.08288 27.9846 8.168C18.0146 10.048 10.4702 18.7976 10.4702 29.3144V38.97C10.4702 41.2668 8.8482 48.1586 5.3037 50.3434C-5.85967 57.2236 13.3403 64 31.9946 64C50.6488 64 69.8488 57.2236 58.6851 50.3434ZM30.4175 4.00838C30.6236 3.70363 30.9157 3.46088 31.2553 3.31838C31.482 3.2225 31.7285 3.16875 31.9946 3.16875C32.3933 3.16963 32.7518 3.288 33.0565 3.49312C33.3612 3.69837 33.604 3.99137 33.7475 4.331C33.8425 4.55687 33.8953 4.80325 33.8953 5.07037C33.8945 5.46912 33.7771 5.82662 33.5718 6.13125C33.3666 6.436 33.0736 6.67875 32.7348 6.82225C32.5081 6.91725 32.2616 6.971 31.9946 6.971C31.5958 6.97013 31.2383 6.85275 30.9327 6.6475C30.629 6.44138 30.3861 6.14838 30.2427 5.80875C30.1477 5.58288 30.094 5.33738 30.094 5.07037C30.0948 4.6705 30.2122 4.313 30.4175 4.00838Z" fill="#F6E96F"/>
<path d="M61.5492 55.5309C61.5492 60.2076 48.2304 64 31.7993 64C15.3693 64 2.05078 60.2076 2.05078 55.5309C2.05078 50.8541 15.3693 47.0618 31.7993 47.0618C48.2304 47.0618 61.5492 50.8541 61.5492 55.5309Z" fill="#EBD75C"/>
<path d="M33.7708 4.3855C34.3174 5.78425 33.164 6.86775 31.9946 6.93138V64C34.9966 64 38.0004 63.8298 40.9826 63.4946C44.2525 63.1273 47.509 62.5689 50.6946 61.7355C53.228 61.0696 55.7684 60.2463 58.075 58.989C59.5088 58.2094 61.1693 57.1412 61.7885 55.5461C62.3584 54.0774 61.5671 52.6921 60.4999 51.6946C59.6333 50.8845 58.5436 50.3792 57.6905 49.5638C56.6744 48.5915 55.9351 47.3521 55.3508 46.0851C54.3364 43.8924 53.5183 41.3141 53.5183 38.8795V29.7607C53.5183 24.9783 52.158 20.3615 49.2895 16.4993C46.0859 12.1828 41.2926 9.16012 36.0065 8.16537C38.53 4.8945 36.1221 -0.00174953 31.9946 4.68979e-07V3.20813C32.6766 3.17138 33.3658 3.48225 33.7241 4.278L33.7349 4.30313C33.7394 4.312 33.7439 4.321 33.7475 4.33175C33.752 4.34438 33.7591 4.355 33.7628 4.36763C33.768 4.37938 33.7708 4.3855 33.7708 4.3855Z" fill="#F6D85D"/>
<path d="M26.4243 49.6999C13.9473 50.2832 4.56055 52.813 4.56055 55.849C4.56055 59.3062 16.7445 62.1092 31.799 62.1245V49.5735C29.9603 49.5754 28.1618 49.6175 26.4243 49.6999Z" fill="#AD8A43"/>
<path d="M38.0035 49.7285C36.0463 49.6255 34.0141 49.5725 31.9243 49.5725C31.8831 49.5725 31.841 49.5734 31.7988 49.5734V62.1244C31.841 62.1244 31.8831 62.1253 31.9243 62.1253C47.0381 62.1253 59.2897 59.316 59.2897 55.849C59.2897 52.8613 50.1915 50.3611 38.0035 49.7285Z" fill="#9D7A3B"/>
<path d="M38.9171 53.105C38.9171 56.8121 35.9116 59.8178 32.2061 59.8178C28.5007 59.8178 25.4961 56.8123 25.4961 53.105C25.4961 51.8621 25.8348 50.6971 26.4245 49.6998C28.2023 49.6155 30.0421 49.5725 31.9247 49.5725C34.0145 49.5725 36.0468 49.6255 38.0038 49.7285C38.5855 50.7195 38.9171 51.8746 38.9171 53.105Z" fill="#EDC953"/>
<path d="M29.791 57.4807C30.5537 57.4807 31.1719 56.8625 31.1719 56.0999C31.1719 55.3372 30.5537 54.719 29.791 54.719C29.0284 54.719 28.4102 55.3372 28.4102 56.0999C28.4102 56.8625 29.0284 57.4807 29.791 57.4807Z" fill="white"/>
<path d="M16.3125 27.3268C16.3133 24.2012 17.3058 21.3131 18.9967 18.9446C20.6867 16.578 23.0748 14.7375 25.851 13.7302C26.5087 13.491 26.8483 12.7651 26.61 12.1065C26.3706 11.4487 25.6438 11.11 24.9862 11.3492C21.7181 12.5347 18.9187 14.6926 16.9333 17.4722C14.9481 20.2502 13.7763 23.659 13.7773 27.3267C13.7773 28.0257 14.345 28.593 15.0443 28.593C15.7447 28.593 16.3125 28.0257 16.3125 27.3268Z" fill="white"/>
</svg>
