<svg width="64" height="64" viewBox="0 0 64 64" fill="none" xmlns="http://www.w3.org/2000/svg">
<g clip-path="url(#clip0_73_5724)">
<path d="M20.4812 41.1526V59.6123H8.03121C7.94771 59.6123 7.86421 59.6111 7.78196 59.6072C7.26034 59.588 6.75546 59.5083 6.27371 59.3747C3.49746 58.6065 1.45996 56.0615 1.45996 53.0412V42.4373C1.45996 41.7268 2.03421 41.1526 2.74471 41.1526H20.4812Z" fill="#E0D3CE"/>
<path d="M20.4814 41.1526V59.6098L7.78218 59.6072C7.26055 59.588 6.75568 59.5083 6.27393 59.3747C9.0168 58.6193 11.0324 56.1077 11.0337 53.126L11.0376 41.1526H20.4814Z" fill="#CDBFBB"/>
<path d="M62.5397 6.57381V17.1777C62.5397 17.8881 61.9654 18.4624 61.2549 18.4624H43.5186V0.00268555H55.9686C56.0521 0.00268555 56.1356 0.00393555 56.2178 0.00781055C56.7394 0.0270605 57.2456 0.106686 57.7286 0.241686C60.5034 1.01106 62.5397 3.55481 62.5397 6.57381Z" fill="#E0D3CE"/>
<path d="M57.7287 0.241502C54.9872 0.996877 52.9741 3.5085 52.9727 6.489L52.9688 18.4624H43.5186V0.00512695L56.2178 0.00775195C56.7394 0.027002 57.2456 0.106627 57.7287 0.241502Z" fill="#CDBFBB"/>
<path d="M55.9159 0.00900048C52.3367 0.00900048 49.4346 2.91113 49.4332 6.489L49.4204 53.0451C49.4204 56.6744 46.4771 59.6164 42.8479 59.615L36.3884 59.6137L27.6114 59.6111L8.08398 59.606C11.6631 59.606 14.5652 56.7039 14.5666 53.126L14.5795 6.56987C14.5795 2.94062 17.5227 -0.00137452 21.152 4.81778e-07L55.9159 0.00900048Z" fill="#FFF5F5"/>
<path d="M40.6881 48.1774L38.2227 50.5798L38.8047 53.9714C38.9345 54.7268 38.7263 55.4938 38.2343 56.077C37.7693 56.6294 37.1025 56.9609 36.3882 56.9981V59.6138L27.6112 59.6111V56.998C26.897 56.9608 26.2302 56.6293 25.7651 56.0769C25.2731 55.4936 25.065 54.7266 25.1947 53.9713L25.7767 50.5796L23.3127 48.1785C22.5997 47.4835 22.3492 46.466 22.6575 45.5205C22.9645 44.575 23.7662 43.9005 24.749 43.7579L28.1535 43.2633L29.6758 40.1774C30.1152 39.2871 31.0055 38.7334 31.9998 38.7334C32.9942 38.7334 33.8845 39.2871 34.3238 40.1786L35.8462 43.2631L39.252 43.7578C40.2335 43.9004 41.0351 44.5749 41.3422 45.5204C41.6503 46.4661 41.3998 47.4836 40.6881 48.1774Z" fill="#EFE2DD"/>
<path d="M55.9158 0.009C52.3367 0.009 49.4346 2.91112 49.4332 6.489L49.4203 53.0451C49.4203 56.6744 46.4771 59.6164 42.8478 59.615L39.7556 59.6137C43.3592 59.5867 46.2728 56.6551 46.2728 53.0451L46.2857 6.489C46.2869 2.91112 49.1891 0.009 52.7683 0.009L21.0967 0.00125C21.1147 0 21.1339 0 21.1519 0L55.9158 0.009Z" fill="#EFE2DD"/>
<path d="M33.3921 63.8703L31.9996 62.9471L30.6071 63.8703C30.0942 64.2103 29.4092 63.8425 29.4092 63.2271V52.2336H34.5901V63.2271C34.5899 63.8425 33.9049 64.2103 33.3921 63.8703Z" fill="#F37D7E"/>
<path d="M39.4322 46.8902L36.2906 49.9515L37.0321 54.2751C37.143 54.9226 36.4637 55.416 35.8817 55.1107L31.9997 53.0699L28.1176 55.1107C27.5356 55.416 26.8563 54.9227 26.9672 54.2751L27.3686 51.9342L27.7087 49.9515L24.5671 46.8902C24.097 46.4317 24.3568 45.6321 25.0066 45.5381L29.3471 44.9075L31.2887 40.9736C31.5792 40.3841 32.4201 40.3841 32.7106 40.9736L34.6522 44.9075L36.0983 45.1177L38.9927 45.5381C39.6423 45.6321 39.9022 46.4319 39.4322 46.8902Z" fill="#FFCE8B"/>
<path d="M39.4321 46.8903L36.2904 49.9515L37.0319 54.2752C37.1428 54.9227 36.4636 55.416 35.8816 55.1108L31.9996 53.0699L28.1174 55.1108C27.5354 55.416 26.8562 54.9228 26.9671 54.2752L27.3684 51.9343C33.3928 50.8347 35.4273 47.5272 36.0981 45.1177L38.9924 45.538C39.6422 45.6322 39.9021 46.4319 39.4321 46.8903Z" fill="#FFB54E"/>
<path d="M31.0274 9.32036L31.1405 9.26386V11.9201H30.8087C30.2754 11.9201 29.843 12.3525 29.843 12.8859C29.843 13.4192 30.2754 13.8516 30.8087 13.8516H33.404C33.9374 13.8516 34.3697 13.4192 34.3697 12.8859C34.3697 12.3525 33.9374 11.9201 33.404 11.9201H33.0721V7.70111C33.0721 7.36636 32.8989 7.05548 32.614 6.87961C32.3292 6.70361 31.9737 6.68761 31.6744 6.83736L30.1635 7.59273C29.6864 7.83123 29.493 8.41136 29.7316 8.88848C29.9702 9.36548 30.5502 9.55911 31.0274 9.32036Z" fill="#FFB54E"/>
<path d="M27.4745 19.2633H36.5248C37.0582 19.2633 37.4905 18.8309 37.4905 18.2975C37.4905 17.7642 37.0582 17.3318 36.5248 17.3318H27.4745C26.9412 17.3318 26.5088 17.7642 26.5088 18.2975C26.5088 18.8309 26.9412 19.2633 27.4745 19.2633Z" fill="#CDBFBB"/>
<path d="M21.5932 25.6988H42.4061C42.9394 25.6988 43.3718 25.2665 43.3718 24.7331C43.3718 24.1997 42.9394 23.7673 42.4061 23.7673H21.5932C21.0598 23.7673 20.6274 24.1997 20.6274 24.7331C20.6274 25.2665 21.0598 25.6988 21.5932 25.6988Z" fill="#CDBFBB"/>
<path d="M42.4062 27.6599H21.5932C21.0598 27.6599 20.6274 28.0923 20.6274 28.6257C20.6274 29.159 21.0598 29.5914 21.5932 29.5914H42.4061C42.9394 29.5914 43.3718 29.159 43.3718 28.6257C43.3719 28.0924 42.9396 27.6599 42.4062 27.6599Z" fill="#CDBFBB"/>
<path d="M42.4062 31.5525H21.5932C21.0598 31.5525 20.6274 31.9849 20.6274 32.5182C20.6274 33.0516 21.0598 33.484 21.5932 33.484H42.4061C42.9394 33.484 43.3718 33.0516 43.3718 32.5182C43.3718 31.9849 42.9396 31.5525 42.4062 31.5525Z" fill="#CDBFBB"/>
</g>
<defs>
<clipPath id="clip0_73_5724">
<rect width="64" height="64" fill="white"/>
</clipPath>
</defs>
</svg>
