<svg width="64" height="64" viewBox="0 0 64 64" fill="none" xmlns="http://www.w3.org/2000/svg">
<g clip-path="url(#clip0_114_7128)">
<path fill-rule="evenodd" clip-rule="evenodd" d="M32 64C25.671 64 19.4841 62.1232 14.2218 58.607C8.9594 55.0908 4.85791 50.0931 2.4359 44.2459C0.0138982 38.3986 -0.619853 31.9645 0.614874 25.7571C1.8496 19.5497 4.89734 13.8479 9.37262 9.3726C13.8479 4.89733 19.5497 1.84962 25.7571 0.614891C31.9645 -0.619836 38.3987 0.0138501 44.2459 2.43585C50.0932 4.85786 55.0909 8.95939 58.6071 14.2218C62.1233 19.4841 64 25.671 64 32C64 40.4869 60.6286 48.6263 54.6274 54.6274C48.6263 60.6286 40.487 64 32 64ZM13.8816 39.216C13.1935 38.5203 12.8075 37.5812 12.8075 36.6027C12.8075 35.6241 13.1935 34.6851 13.8816 33.9893L15.7654 32.1163C16.0857 31.793 16.4677 31.5374 16.8888 31.3647C17.3098 31.1919 17.7613 31.1055 18.2164 31.1106C18.6714 31.1156 19.1208 31.2121 19.5379 31.3942C19.955 31.5763 20.3312 31.8404 20.6443 32.1707L23.9723 35.6235C24.131 35.7909 24.3221 35.9243 24.534 36.0154C24.7459 36.1065 24.9742 36.1535 25.2048 36.1535C25.4355 36.1535 25.6638 36.1065 25.8757 36.0154C26.0876 35.9243 26.2787 35.7909 26.4373 35.6235L43.3974 18.1408C43.7127 17.8082 44.092 17.5427 44.5126 17.3604C44.9331 17.1781 45.3862 17.0828 45.8446 17.0801C46.3029 17.0774 46.7571 17.1674 47.1797 17.3448C47.6024 17.5221 47.9848 17.7831 48.304 18.112L50.1334 19.9616C50.8047 20.6545 51.1801 21.5814 51.1801 22.5461C51.1801 23.5109 50.8047 24.4378 50.1334 25.1307L27.6171 48.0117C27.3029 48.337 26.9269 48.5963 26.5112 48.7743C26.0954 48.9523 25.6483 49.0456 25.1961 49.0485C24.7438 49.0515 24.2955 48.9642 23.8775 48.7916C23.4595 48.6191 23.0801 48.3648 22.7616 48.0437L13.8816 39.216Z" fill="#699F4C"/>
</g>
<defs>
<clipPath id="clip0_114_7128">
<rect width="64" height="64" fill="white"/>
</clipPath>
</defs>
</svg>
