<svg width="64" height="64" viewBox="0 0 64 64" fill="none" xmlns="http://www.w3.org/2000/svg">
<g clip-path="url(#clip0_92_7220)">
<g clip-path="url(#clip1_92_7220)">
<path d="M0 29.9355V51.5097C0 59.4581 6.70968 58.8388 14.6581 58.8388H49.2387C57.1871 58.8388 63.8968 59.4581 63.8968 51.5097V29.9355H0Z" fill="#5B402E"/>
<rect y="24" width="64" height="6" fill="#493322"/>
<path d="M14.4517 58.8388H49.342C57.2904 58.8388 64 59.4581 64 51.5097V29.9355" fill="#493322"/>
<path d="M64 24.7743V19.613C64 11.6646 57.2903 5.16138 49.3419 5.16138H14.6581C6.70968 5.16138 0 11.6646 0 19.613V24.7743H64Z" fill="#5B402E"/>
<path d="M0 19.613V24.7743H64V19.613C64 11.6646 57.2903 5.16138 49.3419 5.16138" fill="#493322"/>
<path d="M0 38.1936H64V29.9355" fill="#E88813"/>
<path d="M55 6.00008C51 4.00017 13 4.00003 9 5.99998C5 7.99994 5 9.00012 5 9.00012L33 9L59 9.00012C59 9.00012 59 8 55 6.00008Z" fill="#F2B111"/>
<path d="M20.6452 37.5483H13.4194V60.258H20.6452V37.5483Z" fill="#E88813"/>
<path d="M38 2H28V8H38V2Z" fill="#F2B111"/>
<path d="M50.5808 37.5483H43.355V60.258H50.5808V37.5483Z" fill="#E88813"/>
<path d="M23.7419 35.3032C24.369 35.3032 24.8774 34.7948 24.8774 34.1677C24.8774 33.5406 24.369 33.0322 23.7419 33.0322C23.1148 33.0322 22.6064 33.5406 22.6064 34.1677C22.6064 34.7948 23.1148 35.3032 23.7419 35.3032Z" fill="#493322"/>
<path d="M29.2131 35.3032C29.8402 35.3032 30.3486 34.7948 30.3486 34.1677C30.3486 33.5406 29.8402 33.0322 29.2131 33.0322C28.586 33.0322 28.0776 33.5406 28.0776 34.1677C28.0776 34.7948 28.586 35.3032 29.2131 35.3032Z" fill="#493322"/>
<path d="M34.7873 35.3032C35.4145 35.3032 35.9228 34.7948 35.9228 34.1677C35.9228 33.5406 35.4145 33.0322 34.7873 33.0322C34.1602 33.0322 33.6519 33.5406 33.6519 34.1677C33.6519 34.7948 34.1602 35.3032 34.7873 35.3032Z" fill="#493322"/>
<path d="M40.258 35.3032C40.8852 35.3032 41.3935 34.7948 41.3935 34.1677C41.3935 33.5406 40.8852 33.0322 40.258 33.0322C39.6309 33.0322 39.1226 33.5406 39.1226 34.1677C39.1226 34.7948 39.6309 35.3032 40.258 35.3032Z" fill="#493322"/>
<path d="M4.33568 35.3032C4.96279 35.3032 5.47116 34.7948 5.47116 34.1677C5.47116 33.5406 4.96279 33.0322 4.33568 33.0322C3.70857 33.0322 3.2002 33.5406 3.2002 34.1677C3.2002 34.7948 3.70857 35.3032 4.33568 35.3032Z" fill="#493322"/>
<path d="M9.70335 35.3032C10.3305 35.3032 10.8388 34.7948 10.8388 34.1677C10.8388 33.5406 10.3305 33.0322 9.70335 33.0322C9.07624 33.0322 8.56787 33.5406 8.56787 34.1677C8.56787 34.7948 9.07624 35.3032 9.70335 35.3032Z" fill="#493322"/>
<path d="M54.1936 35.3032C54.8207 35.3032 55.3291 34.7948 55.3291 34.1677C55.3291 33.5406 54.8207 33.0322 54.1936 33.0322C53.5665 33.0322 53.0581 33.5406 53.0581 34.1677C53.0581 34.7948 53.5665 35.3032 54.1936 35.3032Z" fill="#493322"/>
<path d="M59.6648 35.3032C60.2919 35.3032 60.8003 34.7948 60.8003 34.1677C60.8003 33.5406 60.2919 33.0322 59.6648 33.0322C59.0377 33.0322 58.5293 33.5406 58.5293 34.1677C58.5293 34.7948 59.0377 35.3032 59.6648 35.3032Z" fill="#493322"/>
<path d="M35.613 44.6969C35.613 42.7356 33.9614 41.084 32.0001 41.084C30.0388 41.084 28.3872 42.7356 28.3872 44.6969C28.3872 46.0388 29.1098 47.2775 30.142 48.0001L29.1098 54.7098H34.8904L33.8582 48.0001C34.8904 47.3808 35.613 46.0388 35.613 44.6969Z" fill="#F2B111"/>
<path d="M34.8904 54.7098L33.8582 48.0001C34.8904 47.3808 35.613 46.0388 35.613 44.6969C35.613 42.7356 33.9614 41.084 32.0001 41.084C30.0388 41.084 28.3872 42.7356 28.3872 44.6969" fill="#E88813"/>
<g clip-path="url(#clip2_92_7220)">
<path d="M8.75218 34.176C11.2558 33.0109 12.341 30.0369 11.1759 27.5333C10.0109 25.0296 7.03685 23.9445 4.53322 25.1095C2.02959 26.2745 0.944445 29.2486 2.10948 31.7522C3.27451 34.2558 6.24855 35.341 8.75218 34.176Z" fill="#FFDC64"/>
<path d="M8.46101 33.5506C10.6193 32.5463 11.5548 29.9824 10.5504 27.8241C9.54611 25.6658 6.98228 24.7304 4.82397 25.7347C2.66567 26.739 1.73019 29.3029 2.73453 31.4612C3.73887 33.6195 6.3027 34.555 8.46101 33.5506Z" fill="#FFC850"/>
<path d="M8.2431 33.0817C10.1424 32.1978 10.9656 29.9417 10.0818 28.0424C9.19799 26.1431 6.94182 25.3198 5.04251 26.2037C3.14321 27.0875 2.31999 29.3436 3.20381 31.243C4.08763 33.1423 6.3438 33.9655 8.2431 33.0817Z" fill="#FFF082"/>
<path d="M6.05953 29.0172L6.2518 29.4304L7.39649 28.8977L7.63511 29.4105L6.49042 29.9432L6.72355 30.4442L7.95521 29.871L8.22748 30.4561L6.2442 31.379L5.05762 28.8291L7.04067 27.9063L7.29096 28.4442L6.05953 29.0172Z" fill="#FFC850"/>
</g>
<g clip-path="url(#clip3_92_7220)">
<path d="M32.7522 31.176C35.2558 30.0109 36.341 27.0369 35.1759 24.5333C34.0109 22.0296 31.0369 20.9445 28.5332 22.1095C26.0296 23.2745 24.9444 26.2486 26.1095 28.7522C27.2745 31.2558 30.2485 32.341 32.7522 31.176Z" fill="#FFDC64"/>
<path d="M32.461 30.5506C34.6193 29.5463 35.5548 26.9824 34.5504 24.8241C33.5461 22.6658 30.9823 21.7304 28.824 22.7347C26.6657 23.739 25.7302 26.3029 26.7345 28.4612C27.7389 30.6195 30.3027 31.555 32.461 30.5506Z" fill="#FFC850"/>
<path d="M32.2431 30.0817C34.1424 29.1978 34.9656 26.9417 34.0818 25.0424C33.198 23.1431 30.9418 22.3198 29.0425 23.2037C27.1432 24.0875 26.32 26.3436 27.2038 28.243C28.0876 30.1423 30.3438 30.9655 32.2431 30.0817Z" fill="#FFF082"/>
<path d="M30.0595 26.0172L30.2518 26.4304L31.3965 25.8977L31.6351 26.4105L30.4904 26.9432L30.7236 27.4442L31.9552 26.871L32.2275 27.4561L30.2442 28.379L29.0576 25.8291L31.0407 24.9063L31.291 25.4442L30.0595 26.0172Z" fill="#FFC850"/>
</g>
<g clip-path="url(#clip4_92_7220)">
<path d="M25.9822 25.6314C28.7373 25.444 30.8187 23.0586 30.6313 20.3035C30.4438 17.5485 28.0585 15.467 25.3034 15.6545C22.5484 15.8419 20.4669 18.2273 20.6544 20.9824C20.8418 23.7374 23.2272 25.8189 25.9822 25.6314Z" fill="#FFDC64"/>
<path d="M25.9354 24.9435C28.3105 24.7819 30.1048 22.7255 29.9432 20.3505C29.7816 17.9754 27.7253 16.1811 25.3502 16.3427C22.9752 16.5043 21.1808 18.5606 21.3424 20.9357C21.504 23.3107 23.5604 25.1051 25.9354 24.9435Z" fill="#FFC850"/>
<path d="M25.9004 24.4272C27.9904 24.285 29.5695 22.4754 29.4273 20.3854C29.2851 18.2953 27.4755 16.7163 25.3854 16.8585C23.2954 17.0007 21.7164 18.8103 21.8586 20.9003C22.0008 22.9904 23.8104 24.5694 25.9004 24.4272Z" fill="#FFF082"/>
<path d="M25.3234 19.8498L25.3544 20.3045L26.614 20.2188L26.6524 20.7831L25.3928 20.8688L25.4303 21.4201L26.7856 21.3279L26.8294 21.9717L24.647 22.1202L24.4561 19.3142L26.6382 19.1657L26.6785 19.7576L25.3234 19.8498Z" fill="#FFC850"/>
</g>
<g clip-path="url(#clip5_92_7220)">
<path d="M15.6517 25.2294C18.1848 26.3289 21.1296 25.1668 22.2291 22.6337C23.3286 20.1006 22.1665 17.1558 19.6334 16.0563C17.1003 14.9568 14.1555 16.1189 13.056 18.652C11.9565 21.1851 13.1186 24.1299 15.6517 25.2294Z" fill="#FFDC64"/>
<path d="M15.9262 24.5968C18.1099 25.5447 20.6485 24.5428 21.5964 22.3591C22.5442 20.1754 21.5424 17.6368 19.3587 16.6889C17.175 15.7411 14.6364 16.7429 13.6885 18.9266C12.7406 21.1103 13.7425 23.6489 15.9262 24.5968Z" fill="#FFC850"/>
<path d="M16.1322 24.1223C18.0538 24.9564 20.2878 24.0748 21.1219 22.1532C21.9561 20.2315 21.0744 17.9975 19.1528 17.1634C17.2311 16.3293 14.9971 17.2109 14.163 19.1325C13.3289 21.0542 14.2105 23.2882 16.1322 24.1223Z" fill="#FFF082"/>
<path d="M17.7235 19.7918L17.542 20.2098L18.7002 20.7125L18.4749 21.2314L17.3168 20.7286L17.0968 21.2355L18.3429 21.7764L18.086 22.3684L16.0794 21.4974L17.1992 18.9175L19.2056 19.7884L18.9694 20.3326L17.7235 19.7918Z" fill="#FFC850"/>
</g>
<g clip-path="url(#clip6_92_7220)">
<path d="M14.8936 33.5863C17.6239 33.9999 20.1725 32.1218 20.5861 29.3916C20.9997 26.6613 19.1216 24.1127 16.3914 23.6991C13.6611 23.2855 11.1125 25.1635 10.6989 27.8938C10.2853 30.6241 12.1633 33.1727 14.8936 33.5863Z" fill="#FFDC64"/>
<path d="M14.9969 32.9044C17.3506 33.261 19.5477 31.6419 19.9042 29.2883C20.2608 26.9346 18.6418 24.7375 16.2881 24.3809C13.9344 24.0244 11.7373 25.6434 11.3808 27.9971C11.0242 30.3508 12.6432 32.5479 14.9969 32.9044Z" fill="#FFC850"/>
<path d="M15.0745 32.393C17.1458 32.7067 19.0792 31.282 19.393 29.2108C19.7067 27.1395 18.282 25.2061 16.2108 24.8923C14.1395 24.5786 12.2061 26.0033 11.8923 28.0745C11.5786 30.1458 13.0033 32.0792 15.0745 32.393Z" fill="#FFF082"/>
<path d="M15.5023 27.7991L15.434 28.2497L16.6823 28.4388L16.5976 28.998L15.3493 28.8089L15.2666 29.3553L16.6097 29.5587L16.5131 30.1968L14.3502 29.8692L14.7715 27.0884L16.9341 27.416L16.8452 28.0025L15.5023 27.7991Z" fill="#FFC850"/>
</g>
<g clip-path="url(#clip7_92_7220)">
<path d="M42.618 32.1528C45.1684 33.2114 48.0942 32.002 49.1528 29.4515C50.2114 26.9011 49.002 23.9754 46.4515 22.9168C43.9011 21.8582 40.9753 23.0676 39.9167 25.618C38.8581 28.1685 40.0675 31.0942 42.618 32.1528Z" fill="#FFDC64"/>
<path d="M42.8823 31.5158C45.081 32.4284 47.6032 31.3859 48.5158 29.1872C49.4284 26.9885 48.3858 24.4663 46.1871 23.5537C43.9884 22.6412 41.4663 23.6837 40.5537 25.8824C39.6411 28.0811 40.6837 30.6033 42.8823 31.5158Z" fill="#FFC850"/>
<path d="M43.0805 31.0381C45.0153 31.8412 47.2348 30.9237 48.0379 28.9889C48.841 27.0541 47.9235 24.8346 45.9887 24.0315C44.0538 23.2284 41.8343 24.1459 41.0313 26.0807C40.2282 28.0155 41.1457 30.2351 43.0805 31.0381Z" fill="#FFF082"/>
<path d="M44.6017 26.6824L44.427 27.1033L45.5931 27.5873L45.3763 28.1097L44.2102 27.6257L43.9984 28.136L45.2531 28.6568L45.0057 29.2529L42.9853 28.4143L44.0635 25.8167L46.0836 26.6551L45.8562 27.2031L44.6017 26.6824Z" fill="#FFC850"/>
</g>
<g clip-path="url(#clip8_92_7220)">
<path d="M38.3299 32.1607C41.0898 32.0688 43.2526 29.757 43.1608 26.9971C43.0689 24.2372 40.7571 22.0744 37.9972 22.1662C35.2373 22.2581 33.0745 24.5699 33.1663 27.3298C33.2582 30.0896 35.57 32.2525 38.3299 32.1607Z" fill="#FFDC64"/>
<path d="M38.3071 31.4713C40.6863 31.3922 42.5509 29.3992 42.4717 27.02C42.3925 24.6408 40.3996 22.7762 38.0204 22.8554C35.6411 22.9346 33.7766 24.9275 33.8558 27.3067C33.935 29.686 35.9279 31.5505 38.3071 31.4713Z" fill="#FFC850"/>
<path d="M38.2899 30.9544C40.3836 30.8847 42.0244 29.1309 41.9548 27.0372C41.8851 24.9435 40.1313 23.3027 38.0376 23.3724C35.9439 23.442 34.3031 25.1958 34.3727 27.2895C34.4424 29.3833 36.1962 31.0241 38.2899 30.9544Z" fill="#FFF082"/>
<path d="M37.8717 26.3598L37.8869 26.8153L39.1487 26.7733L39.1675 27.3386L37.9057 27.3805L37.9241 27.9328L39.2818 27.8876L39.3033 28.5326L37.117 28.6054L37.0234 25.7944L39.2095 25.7217L39.2292 26.3146L37.8717 26.3598Z" fill="#FFC850"/>
</g>
<g clip-path="url(#clip9_92_7220)">
<path d="M24.7522 32.176C27.2558 31.0109 28.341 28.0369 27.1759 25.5333C26.0109 23.0296 23.0369 21.9445 20.5332 23.1095C18.0296 24.2745 16.9444 27.2486 18.1095 29.7522C19.2745 32.2558 22.2485 33.341 24.7522 32.176Z" fill="#FFDC64"/>
<path d="M24.461 31.5506C26.6193 30.5463 27.5548 27.9824 26.5504 25.8241C25.5461 23.6658 22.9823 22.7304 20.824 23.7347C18.6657 24.739 17.7302 27.3029 18.7345 29.4612C19.7389 31.6195 22.3027 32.555 24.461 31.5506Z" fill="#FFC850"/>
<path d="M24.2431 31.0817C26.1424 30.1978 26.9656 27.9417 26.0818 26.0424C25.198 24.1431 22.9418 23.3198 21.0425 24.2037C19.1432 25.0875 18.32 27.3436 19.2038 29.243C20.0876 31.1423 22.3438 31.9655 24.2431 31.0817Z" fill="#FFF082"/>
<path d="M22.0595 27.0172L22.2518 27.4304L23.3965 26.8977L23.6351 27.4105L22.4904 27.9432L22.7236 28.4442L23.9552 27.871L24.2275 28.4561L22.2442 29.379L21.0576 26.8291L23.0407 25.9063L23.291 26.4442L22.0595 27.0172Z" fill="#FFC850"/>
</g>
<g clip-path="url(#clip10_92_7220)">
<path d="M13.7522 28.176C16.2558 27.0109 17.341 24.0369 16.1759 21.5333C15.0109 19.0296 12.0369 17.9445 9.53322 19.1095C7.02959 20.2745 5.94445 23.2486 7.10948 25.7522C8.27451 28.2558 11.2485 29.341 13.7522 28.176Z" fill="#FFDC64"/>
<path d="M13.461 27.5506C15.6193 26.5463 16.5548 23.9824 15.5504 21.8241C14.5461 19.6658 11.9823 18.7304 9.82397 19.7347C7.66567 20.739 6.73019 23.3029 7.73453 25.4612C8.73887 27.6195 11.3027 28.555 13.461 27.5506Z" fill="#FFC850"/>
<path d="M13.2431 27.0817C15.1424 26.1978 15.9656 23.9417 15.0818 22.0424C14.198 20.1431 11.9418 19.3198 10.0425 20.2037C8.14321 21.0875 7.31999 23.3436 8.20381 25.243C9.08763 27.1423 11.3438 27.9655 13.2431 27.0817Z" fill="#FFF082"/>
<path d="M11.0595 23.0172L11.2518 23.4304L12.3965 22.8977L12.6351 23.4105L11.4904 23.9432L11.7236 24.4442L12.9552 23.871L13.2275 24.4561L11.2442 25.379L10.0576 22.8291L12.0407 21.9063L12.291 22.4442L11.0595 23.0172Z" fill="#FFC850"/>
</g>
<g clip-path="url(#clip11_92_7220)">
<path d="M34.7522 24.176C37.2558 23.0109 38.341 20.0369 37.1759 17.5333C36.0109 15.0296 33.0369 13.9445 30.5332 15.1095C28.0296 16.2745 26.9444 19.2486 28.1095 21.7522C29.2745 24.2558 32.2485 25.341 34.7522 24.176Z" fill="#FFDC64"/>
<path d="M34.461 23.5506C36.6193 22.5463 37.5548 19.9824 36.5504 17.8241C35.5461 15.6658 32.9823 14.7304 30.824 15.7347C28.6657 16.739 27.7302 19.3029 28.7345 21.4612C29.7389 23.6195 32.3027 24.555 34.461 23.5506Z" fill="#FFC850"/>
<path d="M34.2431 23.0817C36.1424 22.1978 36.9656 19.9417 36.0818 18.0424C35.198 16.1431 32.9418 15.3198 31.0425 16.2037C29.1432 17.0875 28.32 19.3436 29.2038 21.243C30.0876 23.1423 32.3438 23.9655 34.2431 23.0817Z" fill="#FFF082"/>
<path d="M32.0595 19.0172L32.2518 19.4304L33.3965 18.8977L33.6351 19.4105L32.4904 19.9432L32.7236 20.4442L33.9552 19.871L34.2275 20.4561L32.2442 21.379L31.0576 18.8291L33.0407 17.9063L33.291 18.4442L32.0595 19.0172Z" fill="#FFC850"/>
</g>
<g clip-path="url(#clip12_92_7220)">
<path d="M53.7522 33.176C56.2558 32.0109 57.341 29.0369 56.1759 26.5333C55.0109 24.0296 52.0369 22.9445 49.5332 24.1095C47.0296 25.2745 45.9444 28.2486 47.1095 30.7522C48.2745 33.2558 51.2485 34.341 53.7522 33.176Z" fill="#FFDC64"/>
<path d="M53.461 32.5506C55.6193 31.5463 56.5548 28.9824 55.5504 26.8241C54.5461 24.6658 51.9823 23.7304 49.824 24.7347C47.6657 25.739 46.7302 28.3029 47.7345 30.4612C48.7389 32.6195 51.3027 33.555 53.461 32.5506Z" fill="#FFC850"/>
<path d="M53.2431 32.0817C55.1424 31.1978 55.9656 28.9417 55.0818 27.0424C54.198 25.1431 51.9418 24.3198 50.0425 25.2037C48.1432 26.0875 47.32 28.3436 48.2038 30.243C49.0876 32.1423 51.3438 32.9655 53.2431 32.0817Z" fill="#FFF082"/>
<path d="M51.0595 28.0172L51.2518 28.4304L52.3965 27.8977L52.6351 28.4105L51.4904 28.9432L51.7236 29.4442L52.9552 28.871L53.2275 29.4561L51.2442 30.379L50.0576 27.8291L52.0407 26.9063L52.291 27.4442L51.0595 28.0172Z" fill="#FFC850"/>
</g>
<g clip-path="url(#clip13_92_7220)">
<path d="M48.7522 27.176C51.2558 26.0109 52.341 23.0369 51.1759 20.5333C50.0109 18.0296 47.0369 16.9445 44.5332 18.1095C42.0296 19.2745 40.9444 22.2486 42.1095 24.7522C43.2745 27.2558 46.2485 28.341 48.7522 27.176Z" fill="#FFDC64"/>
<path d="M48.461 26.5506C50.6193 25.5463 51.5548 22.9824 50.5504 20.8241C49.5461 18.6658 46.9823 17.7304 44.824 18.7347C42.6657 19.739 41.7302 22.3029 42.7345 24.4612C43.7389 26.6195 46.3027 27.555 48.461 26.5506Z" fill="#FFC850"/>
<path d="M48.2431 26.0817C50.1424 25.1978 50.9656 22.9417 50.0818 21.0424C49.198 19.1431 46.9418 18.3198 45.0425 19.2037C43.1432 20.0875 42.32 22.3436 43.2038 24.243C44.0876 26.1423 46.3438 26.9655 48.2431 26.0817Z" fill="#FFF082"/>
<path d="M46.0595 22.0172L46.2518 22.4304L47.3965 21.8977L47.6351 22.4105L46.4904 22.9432L46.7236 23.4442L47.9552 22.871L48.2275 23.4561L46.2442 24.379L45.0576 21.8291L47.0407 20.9063L47.291 21.4442L46.0595 22.0172Z" fill="#FFC850"/>
</g>
<g clip-path="url(#clip14_92_7220)">
<path d="M34.7522 24.176C37.2558 23.0109 38.341 20.0369 37.1759 17.5333C36.0109 15.0296 33.0369 13.9445 30.5332 15.1095C28.0296 16.2745 26.9444 19.2486 28.1095 21.7522C29.2745 24.2558 32.2485 25.341 34.7522 24.176Z" fill="#FFDC64"/>
<path d="M34.461 23.5506C36.6193 22.5463 37.5548 19.9824 36.5504 17.8241C35.5461 15.6658 32.9823 14.7304 30.824 15.7347C28.6657 16.739 27.7302 19.3029 28.7345 21.4612C29.7389 23.6195 32.3027 24.555 34.461 23.5506Z" fill="#FFC850"/>
<path d="M34.2431 23.0817C36.1424 22.1978 36.9656 19.9417 36.0818 18.0424C35.198 16.1431 32.9418 15.3198 31.0425 16.2037C29.1432 17.0875 28.32 19.3436 29.2038 21.243C30.0876 23.1423 32.3438 23.9655 34.2431 23.0817Z" fill="#FFF082"/>
<path d="M32.0595 19.0172L32.2518 19.4304L33.3965 18.8977L33.6351 19.4105L32.4904 19.9432L32.7236 20.4442L33.9552 19.871L34.2275 20.4561L32.2442 21.379L31.0576 18.8291L33.0407 17.9063L33.291 18.4442L32.0595 19.0172Z" fill="#FFC850"/>
</g>
<g clip-path="url(#clip15_92_7220)">
<path d="M34.7522 24.176C37.2558 23.0109 38.341 20.0369 37.1759 17.5333C36.0109 15.0296 33.0369 13.9445 30.5332 15.1095C28.0296 16.2745 26.9444 19.2486 28.1095 21.7522C29.2745 24.2558 32.2485 25.341 34.7522 24.176Z" fill="#FFDC64"/>
<path d="M34.461 23.5506C36.6193 22.5463 37.5548 19.9824 36.5504 17.8241C35.5461 15.6658 32.9823 14.7304 30.824 15.7347C28.6657 16.739 27.7302 19.3029 28.7345 21.4612C29.7389 23.6195 32.3027 24.555 34.461 23.5506Z" fill="#FFC850"/>
<path d="M34.2431 23.0817C36.1424 22.1978 36.9656 19.9417 36.0818 18.0424C35.198 16.1431 32.9418 15.3198 31.0425 16.2037C29.1432 17.0875 28.32 19.3436 29.2038 21.243C30.0876 23.1423 32.3438 23.9655 34.2431 23.0817Z" fill="#FFF082"/>
<path d="M32.0595 19.0172L32.2518 19.4304L33.3965 18.8977L33.6351 19.4105L32.4904 19.9432L32.7236 20.4442L33.9552 19.871L34.2275 20.4561L32.2442 21.379L31.0576 18.8291L33.0407 17.9063L33.291 18.4442L32.0595 19.0172Z" fill="#FFC850"/>
</g>
<g clip-path="url(#clip16_92_7220)">
<path d="M38.8203 20.2988C41.3919 21.3051 44.2923 20.0363 45.2987 17.4648C46.305 14.8933 45.0362 11.9929 42.4647 10.9865C39.8932 9.98013 36.9928 11.2489 35.9864 13.8204C34.98 16.392 36.2488 19.2924 38.8203 20.2988Z" fill="#FFDC64"/>
<path d="M39.0719 19.6566C41.2887 20.5241 43.7891 19.4303 44.6567 17.2135C45.5242 14.9967 44.4304 12.4963 42.2136 11.6287C39.9968 10.7612 37.4964 11.855 36.6288 14.0718C35.7613 16.2886 36.8551 18.789 39.0719 19.6566Z" fill="#FFC850"/>
<path d="M39.2602 19.1749C41.211 19.9383 43.4114 18.9758 44.1748 17.025C44.9383 15.0742 43.9757 12.8738 42.0249 12.1104C40.0741 11.3469 37.8738 12.3095 37.1103 14.2603C36.3469 16.2111 37.3094 18.4114 39.2602 19.1749Z" fill="#FFF082"/>
<path d="M40.6925 14.7892L40.5264 15.2135L41.7021 15.6737L41.496 16.2004L40.3203 15.7402L40.1189 16.2548L41.384 16.7499L41.1488 17.3509L39.1117 16.5536L40.1367 13.9346L42.1735 14.7317L41.9573 15.2841L40.6925 14.7892Z" fill="#FFC850"/>
</g>
<g clip-path="url(#clip17_92_7220)">
<path d="M50.7522 22.176C53.2558 21.0109 54.341 18.0369 53.1759 15.5333C52.0109 13.0296 49.0369 11.9445 46.5332 13.1095C44.0296 14.2745 42.9444 17.2486 44.1095 19.7522C45.2745 22.2558 48.2485 23.341 50.7522 22.176Z" fill="#FFDC64"/>
<path d="M50.461 21.5506C52.6193 20.5463 53.5548 17.9824 52.5504 15.8241C51.5461 13.6658 48.9823 12.7304 46.824 13.7347C44.6657 14.739 43.7302 17.3029 44.7345 19.4612C45.7389 21.6195 48.3027 22.555 50.461 21.5506Z" fill="#FFC850"/>
<path d="M50.2431 21.0817C52.1424 20.1978 52.9656 17.9417 52.0818 16.0424C51.198 14.1431 48.9418 13.3198 47.0425 14.2037C45.1432 15.0875 44.32 17.3436 45.2038 19.243C46.0876 21.1423 48.3438 21.9655 50.2431 21.0817Z" fill="#FFF082"/>
<path d="M48.0595 17.0172L48.2518 17.4304L49.3965 16.8977L49.6351 17.4105L48.4904 17.9432L48.7236 18.4442L49.9552 17.871L50.2275 18.4561L48.2442 19.379L47.0576 16.8291L49.0407 15.9063L49.291 16.4442L48.0595 17.0172Z" fill="#FFC850"/>
</g>
<g clip-path="url(#clip18_92_7220)">
<path d="M55.1704 27.6203C57.9195 27.8813 60.3596 25.8643 60.6205 23.1152C60.8814 20.3661 58.8644 17.926 56.1153 17.6651C53.3663 17.4042 50.9262 19.4212 50.6652 22.1703C50.4043 24.9193 52.4213 27.3594 55.1704 27.6203Z" fill="#FFDC64"/>
<path d="M55.2357 26.9338C57.6056 27.1587 59.7092 25.4199 59.9341 23.05C60.1591 20.6801 58.4202 18.5766 56.0503 18.3516C53.6805 18.1267 51.5769 19.8655 51.352 22.2354C51.127 24.6053 52.8659 26.7088 55.2357 26.9338Z" fill="#FFC850"/>
<path d="M55.2844 26.4187C57.3699 26.6167 59.221 25.0865 59.4189 23.001C59.6169 20.9155 58.0867 19.0644 56.0012 18.8665C53.9157 18.6685 52.0646 20.1987 51.8667 22.2842C51.6687 24.3697 53.1989 26.2208 55.2844 26.4187Z" fill="#FFF082"/>
<path d="M55.4563 21.8083L55.4132 22.262L56.6701 22.3813L56.6167 22.9444L55.3598 22.8251L55.3075 23.3752L56.6599 23.5036L56.599 24.146L54.4213 23.9393L54.687 21.1394L56.8645 21.3461L56.8084 21.9367L55.4563 21.8083Z" fill="#FFC850"/>
</g>
<g clip-path="url(#clip19_92_7220)">
<path d="M59.291 33.6005C62.0291 33.2425 63.9586 30.7326 63.6005 27.9944C63.2425 25.2563 60.7325 23.3269 57.9944 23.685C55.2563 24.043 53.3269 26.5529 53.6849 29.291C54.043 32.0292 56.5529 33.9586 59.291 33.6005Z" fill="#FFDC64"/>
<path d="M59.2018 32.9168C61.5622 32.6081 63.2255 30.4444 62.9169 28.0839C62.6082 25.7235 60.4445 24.0602 58.084 24.3689C55.7236 24.6775 54.0603 26.8413 54.3689 29.2017C54.6776 31.5621 56.8413 33.2254 59.2018 32.9168Z" fill="#FFC850"/>
<path d="M59.1344 32.4039C61.2116 32.1323 62.6753 30.2282 62.4036 28.151C62.132 26.0738 60.2279 24.6101 58.1507 24.8817C56.0735 25.1533 54.6098 27.0574 54.8815 29.1346C55.1531 31.2118 57.0572 32.6755 59.1344 32.4039Z" fill="#FFF082"/>
<path d="M58.2749 27.8709L58.334 28.3228L59.5859 28.1591L59.6592 28.7199L58.4073 28.8836L58.479 29.4315L59.826 29.2554L59.9097 29.8953L57.7406 30.1789L57.376 27.3901L59.5448 27.1065L59.6217 27.6948L58.2749 27.8709Z" fill="#FFC850"/>
</g>
<g clip-path="url(#clip20_92_7220)">
<path d="M42.7522 25.176C45.2558 24.0109 46.341 21.0369 45.1759 18.5333C44.0109 16.0296 41.0369 14.9445 38.5332 16.1095C36.0296 17.2745 34.9444 20.2486 36.1095 22.7522C37.2745 25.2558 40.2485 26.341 42.7522 25.176Z" fill="#FFDC64"/>
<path d="M42.461 24.5506C44.6193 23.5463 45.5548 20.9824 44.5504 18.8241C43.5461 16.6658 40.9823 15.7304 38.824 16.7347C36.6657 17.739 35.7302 20.3029 36.7345 22.4612C37.7389 24.6195 40.3027 25.555 42.461 24.5506Z" fill="#FFC850"/>
<path d="M42.2431 24.0817C44.1424 23.1978 44.9656 20.9417 44.0818 19.0424C43.198 17.1431 40.9418 16.3198 39.0425 17.2037C37.1432 18.0875 36.32 20.3436 37.2038 22.243C38.0876 24.1423 40.3438 24.9655 42.2431 24.0817Z" fill="#FFF082"/>
<path d="M40.0595 20.0172L40.2518 20.4304L41.3965 19.8977L41.6351 20.4105L40.4904 20.9432L40.7236 21.4442L41.9552 20.871L42.2275 21.4561L40.2442 22.379L39.0576 19.8291L41.0407 18.9063L41.291 19.4442L40.0595 20.0172Z" fill="#FFC850"/>
</g>
<path d="M64 29.9355H0V38.1936H64V29.9355Z" fill="#F2B111"/>
</g>
</g>
<defs>
<clipPath id="clip0_92_7220">
<rect width="64" height="64" fill="white"/>
</clipPath>
<clipPath id="clip1_92_7220">
<rect width="64" height="64" fill="white"/>
</clipPath>
<clipPath id="clip2_92_7220">
<rect width="10" height="10" fill="white" transform="translate(0 27.219) rotate(-24.9543)"/>
</clipPath>
<clipPath id="clip3_92_7220">
<rect width="10" height="10" fill="white" transform="translate(24 24.219) rotate(-24.9543)"/>
</clipPath>
<clipPath id="clip4_92_7220">
<rect width="10" height="10" fill="white" transform="translate(20.3149 15.9939) rotate(-3.89236)"/>
</clipPath>
<clipPath id="clip5_92_7220">
<rect width="10" height="10" fill="white" transform="translate(15.0469 14.0654) rotate(23.4641)"/>
</clipPath>
<clipPath id="clip6_92_7220">
<rect width="10" height="10" fill="white" transform="translate(11.4478 22.9502) rotate(8.61398)"/>
</clipPath>
<clipPath id="clip7_92_7220">
<rect width="10" height="10" fill="white" transform="translate(41.8335 21) rotate(22.5415)"/>
</clipPath>
<clipPath id="clip8_92_7220">
<rect width="10" height="10" fill="white" transform="translate(33 22.3325) rotate(-1.90615)"/>
</clipPath>
<clipPath id="clip9_92_7220">
<rect width="10" height="10" fill="white" transform="translate(16 25.219) rotate(-24.9543)"/>
</clipPath>
<clipPath id="clip10_92_7220">
<rect width="10" height="10" fill="white" transform="translate(5 21.219) rotate(-24.9543)"/>
</clipPath>
<clipPath id="clip11_92_7220">
<rect width="10" height="10" fill="white" transform="translate(26 17.219) rotate(-24.9543)"/>
</clipPath>
<clipPath id="clip12_92_7220">
<rect width="10" height="10" fill="white" transform="translate(45 26.219) rotate(-24.9543)"/>
</clipPath>
<clipPath id="clip13_92_7220">
<rect width="10" height="10" fill="white" transform="translate(40 20.219) rotate(-24.9543)"/>
</clipPath>
<clipPath id="clip14_92_7220">
<rect width="10" height="10" fill="white" transform="translate(26 17.219) rotate(-24.9543)"/>
</clipPath>
<clipPath id="clip15_92_7220">
<rect width="10" height="10" fill="white" transform="translate(26 17.219) rotate(-24.9543)"/>
</clipPath>
<clipPath id="clip16_92_7220">
<rect width="10" height="10" fill="white" transform="translate(37.8086 9.16431) rotate(21.3731)"/>
</clipPath>
<clipPath id="clip17_92_7220">
<rect width="10" height="10" fill="white" transform="translate(42 15.219) rotate(-24.9543)"/>
</clipPath>
<clipPath id="clip18_92_7220">
<rect width="10" height="10" fill="white" transform="translate(51.1377 17.1926) rotate(5.42214)"/>
</clipPath>
<clipPath id="clip19_92_7220">
<rect width="10" height="10" fill="white" transform="translate(53.0366 24.3333) rotate(-7.44995)"/>
</clipPath>
<clipPath id="clip20_92_7220">
<rect width="10" height="10" fill="white" transform="translate(34 18.219) rotate(-24.9543)"/>
</clipPath>
</defs>
</svg>
