<svg width="64" height="64" viewBox="0 0 64 64" fill="none" xmlns="http://www.w3.org/2000/svg">
<g clip-path="url(#clip0_129_12942)">
<path d="M57.4258 43.2836C56.1902 41.488 56.88 38.8925 56.5725 36.0267C56.256 31.3512 54.2471 26.8214 50.3502 23.1983L37.0774 10.8569C37.0774 10.8569 34.4622 8.42316 32.0267 11.04C29.5947 13.6552 32.2116 16.0889 32.2116 16.0889L37.8187 21.3049L42.6791 25.824C42.6791 25.824 41.4614 27.1325 36.0818 22.1298L17.9129 5.23027C17.9129 5.23027 15.2942 2.79827 12.8605 5.41516C10.4285 8.03027 13.0436 10.464 13.0436 10.464L30.224 26.4445C30.1867 26.4089 28.9245 27.6747 28.9014 27.6534L10.5191 10.5565C10.5191 10.5565 7.90225 8.12271 5.46847 10.7396C3.03469 13.3565 5.65158 15.7885 5.65158 15.7885L24.0356 32.8889C24.0569 32.9103 22.8729 34.2472 22.9085 34.2809L7.05069 19.5289C7.05069 19.5289 4.4338 17.0952 2.00003 19.712C-0.433753 22.3289 2.18314 24.7627 2.18314 24.7627L19.0436 40.4427C19.1982 40.5867 18.1547 42.0569 18.3485 42.2365L6.19914 30.9369C6.19914 30.9369 3.58225 28.5032 1.14847 31.1218C-1.28531 33.7387 1.33158 36.1725 1.33158 36.1725L21.1485 54.5956C24.4569 57.6729 27.8542 59.2303 31.9502 59.8009C32.784 59.9165 33.8507 59.9165 34.288 59.9716C35.6694 60.1458 36.8818 60.6365 38.5049 61.632C40.5938 62.912 43.728 63.4454 45.5289 61.52L51.6694 54.9512L57.3387 48.8854C59.1378 46.9618 58.816 45.3014 57.4258 43.2836Z" fill="#EF9645"/>
<path d="M3.47736 62.2684C3.12542 62.2692 2.78119 62.1654 2.48835 61.9702C2.19551 61.775 1.96728 61.4972 1.8326 61.172C1.69793 60.8469 1.6629 60.4891 1.73196 60.144C1.80102 59.7989 1.97105 59.4821 2.22047 59.2338L8.53336 52.9244C8.69842 52.7594 8.89437 52.6285 9.11003 52.5391C9.32568 52.4498 9.55682 52.4038 9.79025 52.4038C10.0237 52.4038 10.2548 52.4498 10.4705 52.5391C10.6861 52.6285 10.8821 52.7594 11.0471 52.9244C11.2122 53.0895 11.3431 53.2854 11.4325 53.5011C11.5218 53.7168 11.5678 53.9479 11.5678 54.1813C11.5678 54.4148 11.5218 54.6459 11.4325 54.8616C11.3431 55.0772 11.2122 55.2732 11.0471 55.4382L4.73425 61.7493C4.56929 61.9144 4.37333 62.0453 4.15762 62.1344C3.94192 62.2234 3.71073 62.269 3.47736 62.2684ZM15.4702 63.9076C15.1862 63.908 14.9062 63.8402 14.6538 63.7101C14.4014 63.5799 14.1838 63.3911 14.0194 63.1595C13.855 62.9279 13.7486 62.6602 13.709 62.379C13.6695 62.0977 13.6979 61.8111 13.792 61.5431L15.5182 56.6133C15.59 56.3864 15.7066 56.1763 15.8611 55.9953C16.0156 55.8143 16.2048 55.6661 16.4177 55.5596C16.6305 55.4531 16.8625 55.3904 17.1 55.3753C17.3375 55.3601 17.5756 55.3928 17.8002 55.4713C18.0248 55.5499 18.2314 55.6728 18.4077 55.8327C18.5839 55.9925 18.7263 56.1862 18.8263 56.4021C18.9264 56.618 18.982 56.8518 18.99 57.0897C18.998 57.3275 18.9582 57.5645 18.8729 57.7867L17.1467 62.7164C17.0251 63.0642 16.7985 63.3656 16.4982 63.579C16.1979 63.7924 15.8387 63.9072 15.4702 63.9076ZM1.84003 50.2773C1.42188 50.275 1.0179 50.1255 0.69897 49.8551C0.380038 49.5847 0.166524 49.2106 0.0958892 48.7984C0.0252541 48.3863 0.102009 47.9624 0.312688 47.6012C0.523367 47.24 0.854513 46.9645 1.24803 46.8231L5.68358 45.2569C5.90374 45.1791 6.13705 45.1455 6.37019 45.158C6.60334 45.1704 6.83176 45.2286 7.0424 45.3293C7.25304 45.43 7.44179 45.5712 7.59787 45.7449C7.75394 45.9185 7.87428 46.1212 7.95203 46.3413C8.02977 46.5615 8.06339 46.7948 8.05096 47.0279C8.03854 47.2611 7.98031 47.4895 7.87961 47.7002C7.77891 47.9108 7.63771 48.0995 7.46407 48.2556C7.29042 48.4117 7.08774 48.532 6.86758 48.6098L2.43203 50.176C2.24186 50.2431 2.04168 50.2773 1.84003 50.2773ZM54.2134 11.5804C53.8614 11.5807 53.5173 11.4765 53.2247 11.2811C52.932 11.0857 52.7039 10.8078 52.5693 10.4826C52.4347 10.1574 52.3997 9.79964 52.4686 9.45453C52.5375 9.10943 52.7073 8.79254 52.9565 8.544L59.2711 2.23289C59.6047 1.89955 60.0571 1.71237 60.5287 1.71253C61.0002 1.7127 61.4525 1.9002 61.7858 2.23378C62.1192 2.56737 62.3063 3.01971 62.3062 3.4913C62.306 3.96289 62.1185 4.4151 61.7849 4.74845L55.4702 11.0596C55.3056 11.2252 55.1098 11.3565 54.894 11.446C54.6783 11.5354 54.4469 11.5811 54.2134 11.5804ZM46.8107 8.56356C46.5266 8.56366 46.2466 8.49568 45.9942 8.36531C45.7418 8.23494 45.5243 8.04597 45.3599 7.81424C45.1956 7.58252 45.0892 7.31478 45.0496 7.03345C45.01 6.75213 45.0384 6.46542 45.1325 6.19734L46.8569 1.26756C47.0125 0.822468 47.3385 0.457415 47.7633 0.252709C48.188 0.0480022 48.6767 0.0204109 49.1218 0.176005C49.5669 0.331598 49.932 0.657631 50.1367 1.08238C50.3414 1.50713 50.369 1.9958 50.2134 2.44089L48.4889 7.37067C48.3675 7.71906 48.1408 8.02106 47.8401 8.2348C47.5394 8.44854 47.1796 8.56344 46.8107 8.56356ZM57.7316 18.8284C57.3134 18.8261 56.9095 18.6766 56.5905 18.4062C56.2716 18.1358 56.0581 17.7617 55.9874 17.3495C55.9168 16.9374 55.9936 16.5135 56.2042 16.1523C56.4149 15.7911 56.7461 15.5156 57.1396 15.3742L61.5734 13.808C62.018 13.651 62.5068 13.677 62.9322 13.8804C63.3576 14.0838 63.6848 14.4478 63.8418 14.8924C63.9988 15.3371 63.9728 15.8259 63.7694 16.2513C63.566 16.6767 63.202 17.0039 62.7574 17.1609L58.3236 18.7271C58.1334 18.7942 57.9332 18.8285 57.7316 18.8284Z" fill="#FA743E"/>
<path d="M62.9154 42.3502C61.7402 40.5156 62.5171 37.9431 62.3074 35.0685C62.1474 30.3858 60.2931 25.7902 56.5207 22.0373L43.6709 9.25689C43.6709 9.25689 41.1394 6.73778 38.6167 9.27112C36.0976 11.8027 38.6309 14.3236 38.6309 14.3236L44.0603 19.7262L48.7643 24.4053C48.7643 24.4053 47.502 25.6711 42.2949 20.4907C37.0843 15.3084 24.7056 2.98845 24.7056 2.98845C24.7056 2.98845 22.1723 0.469339 19.6514 3.00267C17.1305 5.53423 19.6638 8.05334 19.6638 8.05334L36.2967 24.6045C36.2611 24.5689 34.9563 25.7902 34.9331 25.7671L17.1376 8.06045C17.1376 8.06045 14.6042 5.53956 12.0834 8.07289C9.56425 10.6062 12.0958 13.1253 12.0958 13.1253L29.8931 30.8356C29.9145 30.8569 28.6843 32.1529 28.7198 32.1885L13.3687 16.912C13.3687 16.912 10.8354 14.3929 8.31447 16.9262C5.79358 19.4596 8.32692 21.9804 8.32692 21.9804L24.6487 38.2205C24.798 38.368 23.7065 39.8045 23.8931 39.9911L12.1314 28.288C12.1314 28.288 9.59803 25.7689 7.07714 28.3022C4.55625 30.8356 7.08958 33.3565 7.08958 33.3565L26.2718 52.4356C29.4754 55.6231 32.8176 57.2924 36.8923 58.0018C37.7225 58.1458 38.7891 58.1813 39.2229 58.2507C40.5971 58.4711 41.7918 59.0027 43.3829 60.0533C45.4274 61.4027 48.542 62.0409 50.4069 60.1778L56.766 53.8205L62.6363 47.9502C64.5011 46.0836 64.2362 44.4125 62.9154 42.3502Z" fill="#FFDB5E"/>
</g>
<defs>
<clipPath id="clip0_129_12942">
<rect width="64" height="64" fill="white"/>
</clipPath>
</defs>
</svg>
