<svg width="64" height="64" viewBox="0 0 64 64" fill="none" xmlns="http://www.w3.org/2000/svg">
<g clip-path="url(#clip0_847_8518)">
<path d="M32 64C49.6731 64 64 49.6731 64 32C64 14.3269 49.6731 0 32 0C14.3269 0 0 14.3269 0 32C0 49.6731 14.3269 64 32 64Z" fill="#E5E5E5"/>
<path d="M32.0003 59.5863C47.2358 59.5863 59.5866 47.2355 59.5866 32.0001C59.5866 16.7646 47.2358 4.41382 32.0003 4.41382C16.7648 4.41382 4.41406 16.7646 4.41406 32.0001C4.41406 47.2355 16.7648 59.5863 32.0003 59.5863Z" fill="#DCDCDC"/>
<path d="M32 56.2759C45.4072 56.2759 56.2759 45.4072 56.2759 32C56.2759 18.5928 45.4072 7.72412 32 7.72412C18.5928 7.72412 7.72412 18.5928 7.72412 32C7.72412 45.4072 18.5928 56.2759 32 56.2759Z" fill="#F6F6F6"/>
<path d="M30.3057 26.7969V29.7135H38.386V33.3333H30.3057V36.8698H39V41H25V23H38.9983V26.7969H30.3057Z" fill="#DCDCDC"/>
</g>
<defs>
<clipPath id="clip0_847_8518">
<rect width="64" height="64" fill="white"/>
</clipPath>
</defs>
</svg>
