<svg width="64" height="64" viewBox="0 0 64 64" fill="none" xmlns="http://www.w3.org/2000/svg">
<g clip-path="url(#clip0_93_7529)">
<path d="M58.4445 42.4444C58.4445 44.0947 57.789 45.6773 56.6221 46.8442C55.4552 48.0111 53.8726 48.6667 52.2223 48.6667H11.7779C10.1276 48.6667 8.545 48.0111 7.37811 46.8442C6.21122 45.6773 5.55566 44.0947 5.55566 42.4444V11.8202C5.55566 8.384 14.5639 2 18.0001 2H50.0834C54.8963 2 58.4445 5.59644 58.4445 10.3611V42.4444Z" fill="#C1694F"/>
<path d="M55.3332 48.6667C55.3332 50.3169 54.6776 51.8996 53.5107 53.0665C52.3438 54.2334 50.7612 54.8889 49.111 54.8889H14.8887C13.2385 54.8889 11.6558 54.2334 10.489 53.0665C9.32206 51.8996 8.66651 50.3169 8.66651 48.6667V11.3334C8.66651 4.92604 8.63384 5.11115 16.4443 5.11115H49.111C50.7612 5.11115 52.3438 5.7667 53.5107 6.93359C54.6776 8.10049 55.3332 9.68313 55.3332 11.3334V48.6667Z" fill="#CCD6DD"/>
<path d="M52.2223 50.2222C52.2223 51.4598 51.7307 52.6468 50.8555 53.522C49.9803 54.3972 48.7933 54.8888 47.5557 54.8888H10.2223C8.98465 54.8888 7.79767 54.3972 6.9225 53.522C6.04733 52.6468 5.55566 51.4598 5.55566 50.2222V12.8888C5.55566 11.6512 6.04733 10.4642 6.9225 9.589C7.79767 8.71383 8.98465 8.22217 10.2223 8.22217H47.5557C48.7933 8.22217 49.9803 8.71383 50.8555 9.589C51.7307 10.4642 52.2223 11.6512 52.2223 12.8888V50.2222Z" fill="#E1E8ED"/>
<path d="M52.2224 51.7777C52.2224 53.4279 51.5669 55.0106 50.4 56.1775C49.2331 57.3444 47.6505 57.9999 46.0002 57.9999H13.3336C11.6833 57.9999 10.1007 57.3444 8.93377 56.1775C7.76688 55.0106 7.11133 53.4279 7.11133 51.7777V17.5555C7.11133 15.9052 7.76688 14.3226 8.93377 13.1557C10.1007 11.9888 11.6833 11.3333 13.3336 11.3333H46.0002C47.6505 11.3333 49.2331 11.9888 50.4 13.1557C51.5669 14.3226 52.2224 15.9052 52.2224 17.5555V51.7777Z" fill="#C1694F"/>
<path d="M49.1113 51.7777C49.1113 53.4279 48.4558 55.0105 47.2889 56.1774C46.122 57.3443 44.5393 57.9999 42.8891 57.9999H13.3336C11.6833 57.9999 10.1007 57.3443 8.93377 56.1774C7.76688 55.0105 7.11133 53.4279 7.11133 51.7777V20.6666C7.11133 19.0163 7.76688 17.4337 8.93377 16.2668C10.1007 15.0999 11.6833 14.4443 13.3336 14.4443H43.4102C46.8464 14.4443 49.1113 16.7092 49.1113 20.1454V51.7777Z" fill="#D99E82"/>
<path d="M13.3334 11.3333C10.7077 11.3333 10.6408 8.34356 11.7779 7.05556C13.0721 5.59178 15.0834 5.11111 18.6814 5.11111H21.1112V2H16.8817C10.7077 2 5.55566 5.88889 5.55566 10.3611V51.7778C5.55566 53.428 6.21122 55.0107 7.37811 56.1776C8.545 57.3444 10.1276 58 11.7779 58H14.889V11.3333H13.3334Z" fill="#C1694F"/>
<path d="M42.8891 30.0001C42.8891 30.8252 42.5613 31.6165 41.9779 32.1999C41.3944 32.7834 40.6031 33.1112 39.778 33.1112H24.2224C23.3973 33.1112 22.606 32.7834 22.0226 32.1999C21.4391 31.6165 21.1113 30.8252 21.1113 30.0001V26.8889C21.1113 26.0638 21.4391 25.2725 22.0226 24.6891C22.606 24.1056 23.3973 23.7778 24.2224 23.7778H39.778C40.6031 23.7778 41.3944 24.1056 41.9779 24.6891C42.5613 25.2725 42.8891 26.0638 42.8891 26.8889V30.0001Z" fill="#E1E8ED"/>
<path d="M58.4445 42.4444C58.4445 44.0947 57.789 45.6773 56.6221 46.8442C55.4552 48.0111 53.8726 48.6667 52.2223 48.6667H11.7779C10.1276 48.6667 8.545 48.0111 7.37811 46.8442C6.21122 45.6773 5.55566 44.0947 5.55566 42.4444V11.8202C5.55566 8.384 14.5639 2 18.0001 2H50.0834C54.8963 2 58.4445 5.59644 58.4445 10.3611V42.4444Z" fill="#7FB5FF"/>
<path d="M55.3332 48.6667C55.3332 50.3169 54.6776 51.8996 53.5107 53.0665C52.3438 54.2334 50.7612 54.8889 49.111 54.8889H14.8887C13.2385 54.8889 11.6558 54.2334 10.489 53.0665C9.32206 51.8996 8.66651 50.3169 8.66651 48.6667V11.3334C8.66651 4.92604 8.63384 5.11115 16.4443 5.11115H49.111C50.7612 5.11115 52.3438 5.7667 53.5107 6.93359C54.6776 8.10049 55.3332 9.68313 55.3332 11.3334V48.6667Z" fill="#CCD6DD"/>
<path d="M52.2223 50.2222C52.2223 51.4598 51.7307 52.6468 50.8555 53.522C49.9803 54.3972 48.7933 54.8888 47.5557 54.8888H10.2223C8.98465 54.8888 7.79767 54.3972 6.9225 53.522C6.04733 52.6468 5.55566 51.4598 5.55566 50.2222V12.8888C5.55566 11.6512 6.04733 10.4642 6.9225 9.589C7.79767 8.71383 8.98465 8.22217 10.2223 8.22217H47.5557C48.7933 8.22217 49.9803 8.71383 50.8555 9.589C51.7307 10.4642 52.2223 11.6512 52.2223 12.8888V50.2222Z" fill="#E1E8ED"/>
<path d="M52.2224 51.7777C52.2224 53.4279 51.5669 55.0106 50.4 56.1775C49.2331 57.3444 47.6505 57.9999 46.0002 57.9999H13.3336C11.6833 57.9999 10.1007 57.3444 8.93377 56.1775C7.76688 55.0106 7.11133 53.4279 7.11133 51.7777V17.5555C7.11133 15.9052 7.76688 14.3226 8.93377 13.1557C10.1007 11.9888 11.6833 11.3333 13.3336 11.3333H46.0002C47.6505 11.3333 49.2331 11.9888 50.4 13.1557C51.5669 14.3226 52.2224 15.9052 52.2224 17.5555V51.7777Z" fill="#7FB5FF"/>
<path d="M49.1113 51.7777C49.1113 53.4279 48.4558 55.0105 47.2889 56.1774C46.122 57.3443 44.5393 57.9999 42.8891 57.9999H13.3336C11.6833 57.9999 10.1007 57.3443 8.93377 56.1774C7.76688 55.0105 7.11133 53.4279 7.11133 51.7777V20.6666C7.11133 19.0163 7.76688 17.4337 8.93377 16.2668C10.1007 15.0999 11.6833 14.4443 13.3336 14.4443H43.4102C46.8464 14.4443 49.1113 16.7092 49.1113 20.1454V51.7777Z" fill="#95C5FF"/>
<path d="M13.3334 11.3333C10.7077 11.3333 10.6408 8.34356 11.7779 7.05556C13.0721 5.59178 15.0834 5.11111 18.6814 5.11111H21.1112V2H16.8817C10.7077 2 5.55566 5.88889 5.55566 10.3611V51.7778C5.55566 53.428 6.21122 55.0107 7.37811 56.1776C8.545 57.3444 10.1276 58 11.7779 58H14.889V11.3333H13.3334Z" fill="#7FB5FF"/>
</g>
<defs>
<clipPath id="clip0_93_7529">
<rect width="56" height="56" fill="white" transform="translate(4 2)"/>
</clipPath>
</defs>
</svg>
