<svg width="64" height="64" viewBox="0 0 64 64" fill="none" xmlns="http://www.w3.org/2000/svg">
<g clip-path="url(#clip0_129_12864)">
<path d="M46.2223 16C39.8383 16 35.0756 13.0702 32.0196 7.27997C29.1289 13.0026 24.8765 16 19.5556 16C19.0841 16 18.6319 15.8127 18.2985 15.4793C17.9651 15.1459 17.7778 14.6937 17.7778 14.2222C17.7778 13.7507 17.9651 13.2985 18.2985 12.9651C18.6319 12.6317 19.0841 12.4444 19.5556 12.4444C24.4072 12.4444 28.0267 8.9653 30.3129 2.10486C30.4307 1.75048 30.657 1.44216 30.9598 1.22366C31.2627 1.00516 31.6266 0.887573 32.0001 0.887573C32.3735 0.887573 32.7374 1.00516 33.0403 1.22366C33.3431 1.44216 33.5694 1.75048 33.6872 2.10486C36.0374 9.1573 40.0214 12.4444 46.2223 12.4444C46.6938 12.4444 47.146 12.6317 47.4794 12.9651C47.8128 13.2985 48.0001 13.7507 48.0001 14.2222C48.0001 14.6937 47.8128 15.1459 47.4794 15.4793C47.146 15.8127 46.6938 16 46.2223 16Z" fill="#292F33"/>
<path d="M26.153 17.1627C32.1335 23.1467 27.0384 27.7476 21.0544 33.7298C15.0722 39.712 10.4695 44.8089 4.48727 38.8285C3.06435 37.406 1.9356 35.7172 1.1655 33.8585C0.395396 31.9998 -0.000976563 30.0075 -0.000976562 27.9956C-0.000976563 25.9836 0.395396 23.9914 1.1655 22.1326C1.9356 20.2739 3.06435 18.5851 4.48727 17.1627C5.90968 15.7398 7.59849 14.611 9.45722 13.8409C11.316 13.0708 13.3082 12.6744 15.3202 12.6744C17.3321 12.6744 19.3244 13.0708 21.1831 13.8409C23.0418 14.611 24.7306 15.7398 26.153 17.1627Z" fill="#FFAC33"/>
<path d="M27.63 19.5058C30.446 22.3235 28.0709 29.2587 22.3269 35.0027C16.5829 40.7467 9.64776 43.1235 6.82998 40.304C4.01398 37.488 6.38909 30.5511 12.1313 24.8071C17.8771 19.0649 24.814 16.6898 27.63 19.5058Z" fill="#BE1931"/>
<path d="M37.847 17.1627C31.8684 23.1467 36.9617 27.7476 42.9457 33.7298C48.9279 39.712 53.5306 44.8089 59.5128 38.8285C62.3355 35.945 63.9066 32.0644 63.8851 28.0294C63.8636 23.9944 62.2512 20.1308 59.3979 17.2775C56.5447 14.4243 52.6811 12.8119 48.6461 12.7904C44.6111 12.7689 40.7305 14.34 37.847 17.1627Z" fill="#FFAC33"/>
<path d="M36.3716 19.5058C33.5538 22.3235 35.9289 29.2587 41.6729 35.0027C47.4152 40.7467 54.3538 43.1235 57.1698 40.304C59.9858 37.488 57.6107 30.5511 51.8667 24.8071C46.1245 19.0649 39.1858 16.6898 36.3716 19.5058Z" fill="#BE1931"/>
<path d="M39.8399 32.3929C40.207 32.0976 40.6763 31.9601 41.1447 32.0106C42.6861 32.1777 43.9856 32.7146 44.8941 33.5626C45.8559 34.4604 46.3287 35.6657 46.199 36.8728C45.9696 38.9902 43.8452 40.9351 40.2203 40.544C38.8105 40.3928 38.183 40.8462 38.1616 41.0613C38.1367 41.2764 38.6541 41.8542 40.0639 42.0071C41.6052 42.1742 42.9047 42.7111 43.8132 43.5591C44.775 44.4569 45.2514 45.6622 45.1181 46.8693C44.8887 48.9884 42.7643 50.9315 39.143 50.5422C38.1154 50.432 37.5732 50.6435 37.3439 50.7804C37.1607 50.8924 37.0879 51.0008 37.0807 51.0613C37.0594 51.2746 37.5696 51.8524 38.983 52.0053C39.4519 52.056 39.8814 52.2909 40.1772 52.6583C40.4729 53.0257 40.6105 53.4955 40.5599 53.9644C40.5092 54.4333 40.2743 54.8629 39.9069 55.1586C39.5395 55.4543 39.0696 55.592 38.6007 55.5413C34.9794 55.152 33.3154 52.8 33.5447 50.6791C33.7741 48.56 35.8985 46.6168 39.5234 47.008C40.551 47.12 41.0896 46.9066 41.319 46.7697C41.5039 46.6595 41.5767 46.5511 41.5821 46.4906C41.607 46.2755 41.0932 45.6977 39.6799 45.5448C36.0585 45.1537 34.3945 42.8035 34.6239 40.6826C34.8532 38.5635 36.9776 36.6186 40.599 37.0133C41.6265 37.1235 42.1687 36.9102 42.3981 36.7733C42.5812 36.6631 42.6541 36.5546 42.6612 36.4942C42.6825 36.2791 42.1687 35.7013 40.759 35.5484C40.409 35.5105 40.0782 35.3695 39.8084 35.1434C39.5387 34.9172 39.3421 34.6161 39.2437 34.2781C39.1452 33.9402 39.1494 33.5806 39.2555 33.245C39.3616 32.9093 39.565 32.6128 39.8399 32.3929Z" fill="#AA8DD8"/>
<path d="M27.1393 63.6942C23.6318 64.6844 21.2122 63.1218 20.6362 61.0684C20.0602 59.0169 21.3082 56.4195 24.814 55.4329C26.1829 55.0489 26.5935 54.3947 26.5384 54.1867C26.478 53.9751 25.7829 53.632 24.4175 54.016C20.9118 55.0044 18.4922 53.44 17.9162 51.3867C17.3367 49.3333 18.5882 46.7395 22.0958 45.7529C23.4629 45.3671 23.8753 44.7111 23.8149 44.5031C23.7562 44.2969 23.0629 43.9502 21.6958 44.3342C21.468 44.4083 21.2275 44.4355 20.9889 44.4144C20.7503 44.3932 20.5184 44.324 20.3072 44.2109C20.096 44.0979 19.9098 43.9433 19.7599 43.7566C19.6099 43.5698 19.4992 43.3546 19.4345 43.1239C19.3697 42.8933 19.3523 42.652 19.3832 42.4144C19.414 42.1768 19.4926 41.948 19.6141 41.7416C19.7357 41.5351 19.8977 41.3554 20.0904 41.2131C20.2832 41.0709 20.5027 40.9691 20.7358 40.9138C24.2398 39.9271 26.6611 41.4862 27.2407 43.5431C27.8167 45.5947 26.5669 48.1884 23.0593 49.1787C21.6904 49.5627 21.2798 50.2169 21.3402 50.4249C21.3971 50.6329 22.0904 50.9795 23.4558 50.5955C26.9651 49.6071 29.3829 51.168 29.9607 53.2249C30.5384 55.2747 29.2887 57.8684 25.7793 58.8587C24.414 59.2409 24.0033 59.9004 24.0602 60.1049C24.1207 60.3147 24.8122 60.6595 26.1793 60.2773C26.6324 60.15 27.1175 60.2079 27.528 60.4383C27.9384 60.6687 28.2405 61.0527 28.3678 61.5058C28.4951 61.9589 28.4372 62.444 28.2068 62.8544C27.9764 63.2648 27.5924 63.5669 27.1393 63.6942Z" fill="#77B255"/>
<path d="M4.4445 51.5555C5.91726 51.5555 7.11117 50.3616 7.11117 48.8888C7.11117 47.4161 5.91726 46.2222 4.4445 46.2222C2.97174 46.2222 1.77783 47.4161 1.77783 48.8888C1.77783 50.3616 2.97174 51.5555 4.4445 51.5555Z" fill="#5C913B"/>
<path d="M12.4442 58.6667C14.4079 58.6667 15.9998 57.0748 15.9998 55.1111C15.9998 53.1474 14.4079 51.5555 12.4442 51.5555C10.4805 51.5555 8.88867 53.1474 8.88867 55.1111C8.88867 57.0748 10.4805 58.6667 12.4442 58.6667Z" fill="#9266CC"/>
<path d="M53.3334 51.5556C55.2971 51.5556 56.8889 49.9637 56.8889 48C56.8889 46.0363 55.2971 44.4445 53.3334 44.4445C51.3697 44.4445 49.7778 46.0363 49.7778 48C49.7778 49.9637 51.3697 51.5556 53.3334 51.5556Z" fill="#9266CC"/>
<path d="M45.3332 58.6667C46.8059 58.6667 47.9998 57.4728 47.9998 56C47.9998 54.5273 46.8059 53.3334 45.3332 53.3334C43.8604 53.3334 42.6665 54.5273 42.6665 56C42.6665 57.4728 43.8604 58.6667 45.3332 58.6667Z" fill="#5C913B"/>
<path d="M31.111 37.3333C32.5838 37.3333 33.7777 36.1394 33.7777 34.6667C33.7777 33.1939 32.5838 32 31.111 32C29.6382 32 28.4443 33.1939 28.4443 34.6667C28.4443 36.1394 29.6382 37.3333 31.111 37.3333Z" fill="#5C913B"/>
<path d="M12.4442 44.4445C14.4079 44.4445 15.9998 42.8526 15.9998 40.8889C15.9998 38.9253 14.4079 37.3334 12.4442 37.3334C10.4805 37.3334 8.88867 38.9253 8.88867 40.8889C8.88867 42.8526 10.4805 44.4445 12.4442 44.4445Z" fill="#FFCC4D"/>
<path d="M48.8888 32C50.3616 32 51.5555 30.8061 51.5555 29.3333C51.5555 27.8605 50.3616 26.6666 48.8888 26.6666C47.4161 26.6666 46.2222 27.8605 46.2222 29.3333C46.2222 30.8061 47.4161 32 48.8888 32Z" fill="#FFCC4D"/>
<path d="M22.2223 28.4444C23.6951 28.4444 24.889 27.2505 24.889 25.7778C24.889 24.305 23.6951 23.1111 22.2223 23.1111C20.7496 23.1111 19.5557 24.305 19.5557 25.7778C19.5557 27.2505 20.7496 28.4444 22.2223 28.4444Z" fill="#FFCC4D"/>
</g>
<defs>
<clipPath id="clip0_129_12864">
<rect width="64" height="64" fill="white"/>
</clipPath>
</defs>
</svg>
