<svg width="64" height="64" viewBox="0 0 64 64" fill="none" xmlns="http://www.w3.org/2000/svg">
<g clip-path="url(#clip0_114_7097)">
<path fill-rule="evenodd" clip-rule="evenodd" d="M32 64C25.671 64 19.4841 62.1232 14.2218 58.607C8.9594 55.0908 4.8579 50.0931 2.4359 44.2459C0.0138982 38.3986 -0.619853 31.9645 0.614874 25.7571C1.8496 19.5497 4.89734 13.8479 9.37262 9.3726C13.8479 4.89732 19.5497 1.84962 25.7571 0.614891C31.9645 -0.619836 38.3987 0.0138501 44.2459 2.43585C50.0931 4.85786 55.0908 8.95938 58.607 14.2218C62.1232 19.4841 64 25.671 64 32C64 36.2023 63.1723 40.3635 61.5641 44.2459C59.956 48.1283 57.5989 51.6559 54.6274 54.6274C51.6559 57.5989 48.1283 59.956 44.2459 61.5642C40.3635 63.1723 36.2023 64 32 64ZM48 42.6165C48.6809 43.2982 49.0634 44.2222 49.0634 45.1856C49.0634 46.149 48.6809 47.073 48 47.7547L47.7643 47.9893C47.0803 48.6723 46.1532 49.0559 45.1867 49.0559C44.2201 49.0559 43.293 48.6723 42.6091 47.9893L33.2608 38.6507C32.9188 38.309 32.4552 38.1171 31.9718 38.1171C31.4883 38.1171 31.0247 38.309 30.6827 38.6507L21.3589 47.9808C21.0203 48.3196 20.6182 48.5883 20.1757 48.7717C19.7331 48.955 19.2588 49.0494 18.7798 49.0494C18.3008 49.0494 17.8264 48.955 17.3839 48.7717C16.9413 48.5883 16.5392 48.3196 16.2005 47.9808L15.9936 47.7749C15.6537 47.4358 15.3843 47.0326 15.201 46.5887C15.0177 46.1448 14.9243 45.669 14.926 45.1887C14.9277 44.7085 15.0245 44.2334 15.2108 43.7908C15.3972 43.3482 15.6694 42.9469 16.0117 42.6101L25.4347 33.2928C25.6072 33.124 25.7443 32.9223 25.8379 32.6998C25.9315 32.4772 25.9797 32.2382 25.9797 31.9968C25.9797 31.7554 25.9315 31.5164 25.8379 31.2938C25.7443 31.0713 25.6072 30.8697 25.4347 30.7008L16.0149 21.3941C15.6723 21.0573 15.3999 20.6559 15.2134 20.2132C15.0268 19.7704 14.9298 19.2951 14.928 18.8147C14.9262 18.3342 15.0197 17.8582 15.203 17.4141C15.3862 16.97 15.6556 16.5666 15.9957 16.2272L16.2017 16.0213C16.5403 15.6826 16.9423 15.4141 17.3849 15.231C17.8275 15.048 18.3019 14.9541 18.7808 14.9547C19.7878 14.9547 22.2528 16.912 22.911 17.5733L30.6827 25.3461C30.8519 25.5156 31.0529 25.65 31.274 25.7417C31.4952 25.8334 31.7323 25.8806 31.9718 25.8806C32.2112 25.8806 32.4483 25.8334 32.6695 25.7417C32.8907 25.65 33.0916 25.5156 33.2608 25.3461L42.6091 16.015C43.2929 15.3321 44.2198 14.9485 45.1861 14.9485C46.1525 14.9485 47.0794 15.3321 47.7632 16.015L48 16.2592C48.6812 16.9409 49.0639 17.8651 49.0639 18.8288C49.0639 19.7925 48.6812 20.7168 48 21.3984L38.6912 30.7179C38.5224 30.8863 38.3884 31.0864 38.297 31.3067C38.2056 31.527 38.1586 31.7631 38.1586 32.0016C38.1586 32.2401 38.2056 32.4762 38.297 32.6965C38.3884 32.9168 38.5224 33.1169 38.6912 33.2853L48 42.6165Z" fill="#E5E5E5"/>
</g>
<defs>
<clipPath id="clip0_114_7097">
<rect width="64" height="64" fill="white"/>
</clipPath>
</defs>
</svg>
