<svg width="64" height="64" viewBox="0 0 64 64" fill="none" xmlns="http://www.w3.org/2000/svg">
<path d="M6 0H56.0397V13.5071H24.9462V23.8414H53.864V36.8045H24.6742C24.6742 36.8045 24.2642 50.3134 18.8725 56.204C12.0686 63.6374 6 63.6374 6 63.6374V0Z" fill="#57B7FB"/>
<path d="M57.1276 49.3145H24.5837C24.5837 49.3145 23.4456 54.2532 20.1418 58.1077C16.8783 61.915 12.6177 64 12.6177 64H57.1276V49.3145Z" fill="#57B7FB"/>
<path d="M10.9855 18.7649C16.7396 12.5846 24.9459 13.5071 24.9459 13.5071V23.8414H34.011C34.011 23.8414 30.705 24.8506 29.0252 26.1983C25.5076 29.0206 24.6739 36.8952 24.6739 36.8952C24.6739 36.8952 24.1687 49.4009 19.6881 55.2068C13.2518 63.5468 6.09033 63.5468 6.09033 63.5468V32.8159C6.09033 32.8159 6.09033 24.0227 10.9855 18.7649Z" fill="#90D5FF"/>
</svg>
