<svg width="64" height="64" viewBox="0 0 64 64" fill="none" xmlns="http://www.w3.org/2000/svg">
<path d="M53.7398 24.98L34.5 61C34.14 61.64 32.7198 62 31.9998 62C31.8398 62 31.6598 61.98 31.4998 61.94C30.6198 61.7 29.9998 60.92 29.9998 60V38H11.9998C11.3198 38 10.6998 37.66 10.3198 37.1C9.9598 36.54 9.8998 35.82 10.1598 35.2C10.5 34.5001 23.5 15.5001 32 3.00007C33.3601 1 35 0.999882 36 1.49997C36.9252 1.96264 38 3 37.5 6.00007L32.5 22H51.9998C52.6998 22 53.3598 22.38 53.7198 22.98C54.0798 23.6 54.0998 24.36 53.7398 24.98Z" fill="#FFD951"/>
</svg>
