<svg width="64" height="64" viewBox="0 0 64 64" fill="none" xmlns="http://www.w3.org/2000/svg">
<path d="M6.53123 1.31583V58.6841C6.53123 59.3949 5.95436 59.9718 5.24348 59.9718H3.66861C2.95648 59.9718 2.38086 59.3949 2.38086 58.6841V1.31583C2.38086 0.604951 2.95648 0.0280762 3.66861 0.0280762H5.24348C5.95436 0.0280762 6.53123 0.605076 6.53123 1.31583Z" fill="#FFCE8B"/>
<path d="M6.53123 6.08057H2.38086V22.7476H6.53123V6.08057Z" fill="#FFB54E"/>
<path d="M61.6186 1.31583V58.6841C61.6186 59.3949 61.043 59.9718 60.3309 59.9718H58.756C58.0451 59.9718 57.4683 59.3949 57.4683 58.6841V1.31583C57.4683 0.604951 58.0451 0.0280762 58.756 0.0280762H60.3309C61.043 0.0280762 61.6186 0.605076 61.6186 1.31583Z" fill="#FFCE8B"/>
<path d="M61.6186 6.08057H57.4683V22.7476H61.6186V6.08057Z" fill="#FFB54E"/>
<path d="M45.1445 7.88306H18.856V20.9444H45.1445V7.88306Z" fill="#FFB54E"/>
<path d="M45.1444 7.88306H41.8955V20.9444H45.1444V7.88306Z" fill="#FF9A1B"/>
<path d="M22.1048 7.88306H18.856V20.9444H22.1048V7.88306Z" fill="#FF9A1B"/>
<path d="M7.30337 20.9445H1.28775C0.5765 20.9445 0 20.3679 0 19.6567V13.6411H7.30337V20.9445Z" fill="#FFF5F5"/>
<path d="M13.8343 7.88306H5.7583V15.1864H13.8343V7.88306Z" fill="#FFF5F5"/>
<path d="M6.53075 14.4138H0V9.17081C0 8.45956 0.5765 7.88306 1.28775 7.88306H6.53075V14.4138Z" fill="#756F6F"/>
<path d="M19.5919 13.6411H12.2886V20.9445H19.5919V13.6411Z" fill="#FFF5F5"/>
<path d="M19.5923 7.88306H13.0615V14.4138H19.5923V7.88306Z" fill="#756F6F"/>
<path d="M13.0615 14.4138H6.53076V20.9446H13.0615V14.4138Z" fill="#756F6F"/>
<path d="M58.2415 7.88306H50.1655V15.1864H58.2415V7.88306Z" fill="#FFF5F5"/>
<path d="M51.7111 13.6411H44.4077V20.9445H51.7111V13.6411Z" fill="#FFF5F5"/>
<path d="M50.9385 7.88306H44.4077V14.4138H50.9385V7.88306Z" fill="#756F6F"/>
<path d="M62.7119 20.9445H56.6963V13.6411H63.9997V19.6567C63.9997 20.3679 63.4232 20.9445 62.7119 20.9445Z" fill="#FFF5F5"/>
<path d="M64 14.4138H57.4692V7.88306H62.7122C63.4235 7.88306 64 8.45956 64 9.17081V14.4138Z" fill="#756F6F"/>
<path d="M57.4692 14.4138H50.9385V20.9446H57.4692V14.4138Z" fill="#756F6F"/>
<path d="M33.4076 16.0464H33.0727V11.8153C33.0727 11.4806 32.8993 11.1698 32.6146 10.9938C32.3299 10.8179 31.9744 10.8018 31.6749 10.9516L30.1606 11.7087C29.6834 11.9472 29.4901 12.5273 29.7287 13.0044C29.9672 13.4814 30.5472 13.6751 31.0244 13.4363L31.1411 13.3781V16.0466H30.8062C30.2728 16.0466 29.8404 16.479 29.8404 17.0123C29.8404 17.5457 30.2728 17.9781 30.8062 17.9781H33.4076C33.9411 17.9781 34.3733 17.5457 34.3733 17.0123C34.3733 16.4788 33.9409 16.0464 33.4076 16.0464Z" fill="#FFF5F5"/>
</svg>
