<svg width="64" height="64" viewBox="0 0 64 64" fill="none" xmlns="http://www.w3.org/2000/svg">
<path d="M55.572 38.5612C54.6504 34.2731 52.2366 30.027 48.395 25.9437C44.2273 21.5131 41.8799 16.332 41.4189 10.5441C41.07 6.17956 41.9815 3.08091 41.9892 3.0542L42.9261 0L39.8531 0.877816C31.4502 3.27679 25.0676 7.16419 20.887 12.4357C17.6256 16.5443 15.6601 21.5372 15.0185 27.3227C15.0007 27.2997 14.9854 27.277 14.9701 27.2553C14.578 26.6904 14.1706 26.1065 13.7556 25.5913L11.9555 23.35L10.8099 25.9869C8.68143 30.8818 7.75475 35.6699 8.05523 40.22C8.32767 44.3466 9.59296 48.1957 11.818 51.6635C14.1781 55.3423 17.5617 58.4535 21.5997 60.667C25.3702 62.733 29.6016 63.9135 33.5073 63.9923C33.6957 63.995 33.8866 64 34.0776 64C40.93 64 50.6681 58.5859 54.4516 49.8419C56.0227 46.2115 56.4021 42.4143 55.572 38.5612Z" fill="#E5E5E5"/>
<path d="M41.695 41.9836C36.7572 36.2363 34.6017 30.5276 34.581 30.4716L33.6688 28L31.7066 29.7902C26.4415 34.5994 22.9097 39.1853 21.2153 43.4218C19.7157 47.1616 19.6039 50.6786 20.88 53.8736C22.0729 56.8593 24.5287 59.5465 27.9799 61.6367C29.3286 62.4534 30.5709 63.0224 31.374 63.3568C32.9255 63.9974 33.2764 63.9974 33.4634 63.9974L33.7857 64L34.0846 63.8876C37.3422 62.7008 43.0803 58.6686 44.624 52.9087C45.6272 49.1627 44.6136 45.3857 41.695 41.9836Z" fill="#F6F6F6"/>
</svg>
