<svg width="64" height="64" viewBox="0 0 64 64" fill="none" xmlns="http://www.w3.org/2000/svg">
<path d="M60.16 32.6667C60.16 30.5867 59.9733 28.5867 59.6267 26.6667H32V38.0267H47.7867C47.0933 41.6801 45.0133 44.7734 41.8933 46.8534V54.2401H51.4133C56.96 49.1201 60.16 41.6001 60.16 32.6667Z" fill="#4285F4"/>
<path d="M32.0001 61.3334C39.9201 61.3334 46.5601 58.7201 51.4135 54.2401L41.8935 46.8534C39.2801 48.6134 35.9468 49.6801 32.0001 49.6801C24.3735 49.6801 17.8935 44.5334 15.5735 37.6001H5.81348V45.1734C10.6401 54.7468 20.5335 61.3334 32.0001 61.3334Z" fill="#34A853"/>
<path d="M15.5737 37.5733C14.987 35.8133 14.6403 33.9466 14.6403 31.9999C14.6403 30.0533 14.987 28.1866 15.5737 26.4266V18.8533H5.81366C3.81366 22.7999 2.66699 27.2533 2.66699 31.9999C2.66699 36.7466 3.81366 41.1999 5.81366 45.1466L13.4137 39.2266L15.5737 37.5733Z" fill="#FBBC05"/>
<path d="M32.0001 14.3467C36.3201 14.3467 40.1601 15.8401 43.2268 18.7201L51.6268 10.3201C46.5335 5.57341 39.9201 2.66675 32.0001 2.66675C20.5335 2.66675 10.6401 9.25342 5.81348 18.8534L15.5735 26.4267C17.8935 19.4934 24.3735 14.3467 32.0001 14.3467Z" fill="#EA4335"/>
</svg>
