<svg width="64" height="64" viewBox="0 0 64 64" fill="none" xmlns="http://www.w3.org/2000/svg">
<rect x="15.375" width="33.25" height="56.8889" rx="16.625" fill="#462500"/>
<rect x="17.3628" y="3.4187" width="29.2741" height="36.6781" rx="14.637" fill="#FFD09A"/>
<rect x="13.563" y="19.7356" width="7.6" height="6.41518" rx="3.20759" fill="#FFD09A"/>
<rect x="42.8369" y="19.7356" width="7.6" height="6.41518" rx="3.20759" fill="#FFD09A"/>
<rect x="29.1147" y="32.3567" width="5.77037" height="15.8288" rx="2.88519" fill="#FFD09A"/>
<rect x="18.5244" y="5.9292" width="13.3133" height="7.42949" rx="3.71475" fill="#462500"/>
<rect x="31.0508" y="3.85742" width="15.389" height="7.42949" rx="3.71475" fill="#462500"/>
<rect x="21.459" y="2.21436" width="15.389" height="7.42949" rx="3.71475" fill="#462500"/>
<path d="M31.9998 45.4939C21.9298 45.4939 16.2298 50.7655 15.2798 59.0495C25.3498 64.5093 39.9798 63.7562 48.7198 59.0495C48.3398 52.0834 42.0698 45.4939 31.9998 45.4939Z" fill="#7F7F7F"/>
</svg>
