<svg width="64" height="64" viewBox="0 0 64 64" fill="none" xmlns="http://www.w3.org/2000/svg">
<path d="M56.9999 58H38V6.56501C38 5.70078 38.5788 5 39.293 5H55.707C56.421 5 57 5.70063 57 6.56501L56.9999 58Z" fill="#FFDBAA"/>
<path d="M57 6.56487V58H54.1802V6.56487C54.1802 5.70048 53.6519 5 53 5H55.8198C56.4717 5 57 5.70048 57 6.56487Z" fill="#FFC26D"/>
<path d="M33.7949 57.9917H18.9995V24.0032C18.9995 23.3045 19.5659 22.738 20.2646 22.738H32.5299C33.2285 22.738 33.795 23.3044 33.795 24.0032V57.9917H33.7949Z" fill="#FFC26D"/>
<path d="M33.7948 24.0026V57.9913H30.7723V24.0026C30.7723 23.3038 30.2061 22.7375 29.5073 22.7375H32.5298C33.2286 22.7375 33.7948 23.3038 33.7948 24.0026Z" fill="#FFA730"/>
<path d="M14.5846 57.9916H3.58447V39.1841C3.58447 38.4854 4.15085 37.9189 4.8496 37.9189H13.3196C14.0182 37.9189 14.5847 38.4853 14.5847 39.1841L14.5846 57.9916Z" fill="#F37D7E"/>
<path d="M14.5849 39.1837V57.9912H11.5624V39.1837C11.5624 38.485 10.9961 37.9187 10.2974 37.9187H13.3199C14.0186 37.9187 14.5849 38.485 14.5849 39.1837Z" fill="#ED6264"/>
<path d="M63.0625 58.929H0.9375C0.41975 58.929 0 58.5093 0 57.9915C0 57.4736 0.41975 57.054 0.9375 57.054H63.0625C63.5802 57.054 64 57.4736 64 57.9915C64 58.5093 63.5802 58.929 63.0625 58.929Z" fill="#CDBFBB"/>
</svg>
