<svg width="64" height="64" viewBox="0 0 64 64" fill="none" xmlns="http://www.w3.org/2000/svg">
<g clip-path="url(#clip0_93_6885)">
<path d="M19.6504 46.467C20.1846 46.467 20.7187 46.2631 21.1262 45.8553L29.2503 37.732C30.0657 36.9173 30.0657 35.5956 29.2503 34.7802C28.4349 33.9649 27.1139 33.9649 26.2985 34.7802L18.1744 42.9036C17.3591 43.7182 17.3591 45.04 18.1744 45.8553C18.5822 46.2631 19.1163 46.467 19.6504 46.467Z" fill="#736056"/>
<path d="M29.2502 37.732L21.1261 45.8554C20.7183 46.2631 20.1842 46.467 19.6503 46.467C19.1163 46.467 18.5826 46.2632 18.1748 45.8556L29.2502 34.7803C30.0657 35.5958 30.0657 36.9174 29.2502 37.732Z" fill="#736056"/>
<path d="M24.822 39.2084C33.7722 48.1586 48.3366 48.1586 57.2872 39.208C66.2378 30.2574 66.2374 15.6934 57.2872 6.74318C48.337 -2.20705 33.7732 -2.20768 24.8224 6.74318C15.8715 15.694 15.8718 30.2581 24.822 39.2084Z" fill="#BDDEFF"/>
<path d="M57.287 39.2078C48.3361 48.1587 33.772 48.1587 24.8218 39.2083L57.287 6.74316C66.2375 15.6934 66.2379 30.2571 57.287 39.2078Z" fill="#99CCFF"/>
<path d="M27.7739 36.2564C35.0964 43.5789 47.0121 43.5789 54.3351 36.256C61.6581 28.9331 61.6576 17.0178 54.3351 9.69518C47.0126 2.37257 35.0974 2.37232 27.7743 9.69518C20.4512 17.018 20.4514 28.9339 27.7739 36.2564Z" fill="#D7EBFF"/>
<path d="M54.3352 9.69507C61.6576 17.0176 61.6581 28.9328 54.3352 36.2556C47.0123 43.5785 35.0965 43.5785 27.774 36.2561L54.3352 9.69507Z" fill="#C4E2FF"/>
<path d="M22.2623 47.2741L22.5127 50.3079L9.87684 62.9576C8.5131 64.3075 6.31448 64.3075 4.95073 62.9576L1.01236 59.0194C-0.337513 57.6556 -0.337513 55.4569 1.01236 54.0931L13.6622 41.4573L16.6958 41.7078L22.2623 47.2741Z" fill="#A6673A"/>
<path d="M4.95086 62.9576L3.01173 61.0185L19.5092 44.521L22.2623 47.2741L22.5127 50.3079L9.87684 62.9576C8.51322 64.3073 6.31473 64.3073 4.95086 62.9576Z" fill="#99522E"/>
<path d="M13.6623 41.4571L22.5127 50.3077L23.7096 49.111C25.0734 47.7611 25.0734 45.5485 23.7096 44.1986L19.7712 40.2604C18.4214 38.8966 16.2089 38.8966 14.8589 40.2604L13.6623 41.4571Z" fill="#FF9F19"/>
<path d="M21.7705 42.2595L23.7096 44.1986C25.0734 45.5485 25.0734 47.7611 23.7096 49.111L22.5127 50.3078L18.1176 45.9125L21.7705 42.2595Z" fill="#F28618"/>
</g>
<defs>
<clipPath id="clip0_93_6885">
<rect width="64" height="64" fill="white"/>
</clipPath>
</defs>
</svg>
