<svg width="64" height="64" viewBox="0 0 64 64" fill="none" xmlns="http://www.w3.org/2000/svg">
<path d="M28.4033 16.64H35.1393C35.2454 16.4612 35.3098 16.2607 35.3277 16.0536C35.3455 15.8464 35.3164 15.6379 35.2424 15.4435L28.4051 7.0791L28.4033 16.64Z" fill="#EF9645"/>
<path d="M22.7626 39.6036C22.6718 39.0208 22.5496 38.4433 22.3964 37.8738C21.2941 33.9218 20.3697 32.2489 20.7644 28.1067C21.2799 25.2907 21.2497 19.6391 28.7341 20.5191C30.711 20.752 33.7884 22.1671 35.5501 22.1369C36.5581 22.1191 37.2924 20.08 37.3581 19.4009C37.4488 18.4658 35.8204 16.8765 35.1395 16.6382C33.5581 16.1263 31.9692 15.638 30.3733 15.1733C28.5261 14.6382 28.6221 12.1422 28.5048 11.2533C28.479 11.0462 28.5148 10.8361 28.6077 10.6492C28.7007 10.4623 28.8467 10.307 29.0275 10.2027C29.4008 9.98223 29.6941 10.1885 30.0568 10.4249L31.6301 11.5769C32.5137 12.3342 30.0764 13.7813 30.7359 14.0231C30.7359 14.0231 33.8559 15.1947 35.1928 15.4382C35.9253 15.5716 38.4533 12.72 38.6008 11.0471C38.7164 9.73157 32.5599 3.78845 28.1706 1.4809C26.6275 0.670232 25.7226 0.199121 24.7057 0.247121C23.4915 0.30401 23.1093 0.78401 21.5981 2.07823C14.759 7.9289 8.12081 20.5813 7.14659 23.3813C3.1537 34.8676 2.5297 40.9191 2.38748 44.3378C2.29933 45.3773 2.25425 46.4199 2.25237 47.4631C2.36792 47.4631 0.47459 56.352 2.25237 58.1298C4.03015 59.9076 11.7208 59.9076 11.7208 59.9076C29.4986 66.9991 62.5119 65.1485 62.5119 47.0489C62.5119 25.4098 29.0666 28.2809 22.7626 39.6036Z" fill="#FFDC5D"/>
<path d="M36.6756 57.0276C31.0578 56.4373 26.6703 53.6836 26.4232 53.5253C26.0255 53.2719 25.7447 52.8709 25.6427 52.4105C25.5407 51.95 25.6257 51.4679 25.8792 51.0702C26.1326 50.6725 26.5336 50.3918 26.9941 50.2898C27.4545 50.1877 27.9366 50.2728 28.3343 50.5262C28.4054 50.5707 35.4507 54.9565 42.2827 53.1342C46.0605 52.128 49.1574 49.3742 51.4863 44.9547C51.706 44.5374 52.0825 44.2245 52.5329 44.0848C52.9833 43.9451 53.4708 43.9901 53.8881 44.2098C54.3053 44.4295 54.6182 44.806 54.7579 45.2564C54.8976 45.7068 54.8527 46.1943 54.6329 46.6116C51.8152 51.9556 47.9592 55.3102 43.1716 56.5778C40.9369 57.168 38.7236 57.2427 36.6756 57.0276Z" fill="#EF9645"/>
</svg>
