<svg width="64" height="64" viewBox="0 0 64 64" fill="none" xmlns="http://www.w3.org/2000/svg">
<path d="M34.5287 31.6611H29.4717V47.1409H34.5287V31.6611Z" fill="#FFC26D"/>
<path d="M34.5287 31.6611V35.9478C33.7493 36.2719 32.8953 36.4519 32.0002 36.4519C31.1051 36.4519 30.2511 36.2719 29.4717 35.9478V31.6611H34.5287Z" fill="#FF9A1B"/>
<path d="M47.0174 51.6211C46.6535 51.6211 46.305 51.4145 46.1413 51.0629C45.9161 50.5794 46.1255 50.0047 46.609 49.7796C50.7882 47.8333 53.8654 45.086 55.7555 41.614C57.272 38.8282 58.0435 35.556 58.0487 31.8881C58.0574 25.5408 55.7409 20.1563 55.7175 20.1027C55.5044 19.614 55.7274 19.0448 56.2159 18.8313C56.7043 18.6179 57.2734 18.8403 57.4873 19.3287C57.5888 19.5608 59.9749 25.0888 59.9803 31.8294C59.9852 38.1472 57.8109 46.6936 47.4245 51.5307C47.2926 51.592 47.1539 51.6211 47.0174 51.6211Z" fill="#FA8916"/>
<path d="M56.6437 12.325C57.7035 15.3941 57.9854 19.8559 56.5979 20.3352C55.2104 20.8144 52.6788 17.1293 51.6189 14.0603C50.559 10.9913 51.3723 9.70067 52.7599 9.22142C54.1474 8.74242 55.5838 9.25617 56.6437 12.325Z" fill="#FFDBAA"/>
<path d="M56.5978 20.3346C56.275 20.4464 55.8892 20.3319 55.4737 20.0516C55.9161 18.4413 55.5586 15.3829 54.769 13.0962C53.9305 10.6693 52.8565 9.84105 51.7568 9.83718C52.027 9.55418 52.3703 9.35492 52.76 9.22117C54.1477 8.7428 55.5843 9.25593 56.6441 12.3246C57.704 15.3946 57.9856 19.8562 56.5978 20.3346Z" fill="#FFC26D"/>
<path d="M59.0662 32.244C58.4257 32.7173 57.0972 32.1218 55.7082 31.062C54.5366 30.1669 53.3212 28.9425 52.4376 27.7477C50.5071 25.1355 50.8968 23.6616 52.0775 22.7884C53.2247 21.9408 54.6973 21.9743 56.5518 24.3754C56.6058 24.4435 56.6586 24.5143 56.7126 24.5876C58.6417 27.1985 60.2468 31.3708 59.0662 32.244Z" fill="#FFB54E"/>
<path d="M59.0659 32.2442C58.4254 32.7175 57.0969 32.122 55.7079 31.0622C55.632 30.5144 55.6101 29.8957 55.6423 29.209C55.713 27.6785 56.0474 25.9191 56.5515 24.3757C56.6055 24.4439 56.6583 24.5146 56.7123 24.588C58.6414 27.1987 60.2465 31.371 59.0659 32.2442Z" fill="#FF9A1B"/>
<path d="M58.4724 24.3425C57.3283 27.381 56.9234 31.8335 58.2971 32.3509C59.6709 32.8681 62.3033 29.2544 63.4473 26.2157C64.5914 23.1772 63.814 21.8646 62.4403 21.3472C61.0665 20.83 59.6165 21.304 58.4724 24.3425Z" fill="#FFDBAA"/>
<path d="M63.4475 26.2161C62.3029 29.2539 59.6715 32.8679 58.2966 32.3509C57.9764 32.2313 57.7539 31.8969 57.6138 31.4171C58.9848 30.4731 60.6748 27.8765 61.5313 25.6026C62.4329 23.2066 62.1409 21.8845 61.3036 21.1784C61.683 21.1385 62.065 21.2054 62.4405 21.3469C63.814 21.8651 64.5909 23.177 63.4475 26.2161Z" fill="#FFC26D"/>
<path d="M55.7528 45.3303C54.9773 45.5129 53.992 44.4403 53.1343 42.9175C52.4101 41.634 51.7774 40.0276 51.4366 38.582C50.6933 35.422 51.6334 34.2195 53.0623 33.8837C54.4525 33.5571 55.7926 34.1692 56.5489 37.1094C56.5708 37.193 56.5914 37.2779 56.6119 37.3652C57.354 40.5266 57.1816 44.9933 55.7528 45.3303Z" fill="#FFB54E"/>
<path d="M55.7528 45.3303C54.9773 45.5129 53.992 44.4403 53.1343 42.9175C53.2797 42.3838 53.5034 41.8076 53.8044 41.189C54.4745 39.8103 55.4764 38.3274 56.549 37.1094C56.5709 37.193 56.5915 37.2779 56.612 37.3653C57.354 40.5266 57.1817 44.9933 55.7528 45.3303Z" fill="#FF9A1B"/>
<path d="M58.326 37.8355C56.0756 40.1759 53.9464 44.1073 55.0046 45.1246C56.0629 46.142 59.9076 43.8604 62.158 41.52C64.4084 39.1796 64.2122 37.6668 63.154 36.6493C62.0958 35.6319 60.5764 35.4951 58.326 37.8355Z" fill="#FFDBAA"/>
<path d="M62.1579 41.5195C59.9072 43.8603 56.0631 46.1418 55.0046 45.1245C54.8412 44.9677 54.7538 44.74 54.7319 44.4597C56.3653 43.9799 58.7009 42.3813 60.2661 40.7543C62.4576 38.4753 62.3289 36.9808 61.3438 35.9635C62.0666 35.8915 62.6608 36.1744 63.1535 36.649C64.212 37.6663 64.4087 39.18 62.1579 41.5195Z" fill="#FFC26D"/>
<path d="M16.9824 51.6212C16.8459 51.6212 16.7072 51.592 16.5753 51.5307C6.18892 46.6934 4.01466 38.1471 4.01954 31.8293C4.02479 25.0887 6.41092 19.5606 6.51254 19.3285C6.72642 18.8399 7.29579 18.6171 7.78467 18.8311C8.27305 19.045 8.4958 19.6141 8.2823 20.1026C8.25892 20.1564 5.94242 25.5407 5.95117 31.888C5.95629 35.556 6.72779 38.8283 8.2443 41.6139C10.1344 45.0859 13.2117 47.8333 17.3908 49.7795C17.8743 50.0047 18.0837 50.5793 17.8586 51.0628C17.6948 51.4144 17.3463 51.6212 16.9824 51.6212Z" fill="#FA8916"/>
<path d="M7.35649 12.3251C6.29661 15.3942 6.01474 19.856 7.40224 20.3353C8.78974 20.8145 11.3214 17.1294 12.3812 14.0604C13.4411 10.9914 12.6279 9.70077 11.2402 9.22151C9.85262 8.74226 8.41637 9.25626 7.35649 12.3251Z" fill="#FFDBAA"/>
<path d="M12.3807 14.061C11.321 17.1297 8.78982 20.8144 7.40207 20.3347C7.0612 20.2177 6.8207 19.8601 6.66895 19.3406C8.01932 18.3747 9.65408 15.7112 10.4527 13.3987C11.2527 11.0811 10.9852 9.77698 10.2083 9.07347C10.5505 9.04522 10.8965 9.1031 11.2398 9.22135C12.6277 9.70097 13.4405 10.991 12.3807 14.061Z" fill="#FFC26D"/>
<path d="M4.93452 32.2443C5.57502 32.7175 6.90352 32.122 8.29252 31.0623C9.46415 30.1672 10.6795 28.9428 11.5632 27.7479C13.4937 25.1358 13.1039 23.6619 11.9233 22.7886C10.776 21.941 9.3034 21.9745 7.4489 24.3756C7.3949 24.4438 7.34215 24.5145 7.28815 24.5879C5.35902 27.1988 3.75389 31.371 4.93452 32.2443Z" fill="#FFB54E"/>
<path d="M11.5631 27.7479C10.6794 28.9426 9.46407 30.167 8.29244 31.0623C6.90344 32.122 5.57481 32.7175 4.93444 32.2443C4.76081 32.1156 4.64631 31.9138 4.58594 31.6578C5.12356 31.4236 5.72931 31.0443 6.34669 30.5735C7.51832 29.6784 8.73369 28.454 9.61732 27.2591C11.5169 24.6895 11.1697 23.2207 10.0341 22.3436C10.7427 22.1765 11.3716 22.3809 11.9233 22.7886C13.104 23.6619 13.4936 25.1357 11.5631 27.7479Z" fill="#FF9A1B"/>
<path d="M4.93452 32.2442C5.57502 32.7175 6.90352 32.122 8.29252 31.0622C8.3684 30.5144 8.39027 29.8957 8.35815 29.209C8.2874 27.6785 7.95302 25.9191 7.4489 24.3757C7.3949 24.4439 7.34215 24.5146 7.28815 24.588C5.35902 27.1987 3.75389 31.371 4.93452 32.2442Z" fill="#FF9A1B"/>
<path d="M5.52777 24.3427C6.6719 27.3812 7.07677 31.8337 5.70302 32.3511C4.32927 32.8685 1.69689 29.2546 0.552759 26.216C-0.591368 23.1773 0.186009 21.8648 1.55976 21.3475C2.93364 20.8302 4.38364 21.3042 5.52777 24.3427Z" fill="#FFDBAA"/>
<path d="M5.70338 32.351C5.35738 32.4809 4.93175 32.3498 4.47 32.0308C4.97162 30.4798 4.52912 27.2477 3.63662 24.8774C2.8225 22.7168 1.85537 21.8538 0.870117 21.7213C1.07337 21.5644 1.30612 21.4421 1.55949 21.347C2.93312 20.83 4.38387 21.3046 5.52713 24.3424C6.67175 27.3815 7.077 31.834 5.70338 32.351Z" fill="#FFC26D"/>
<path d="M8.24726 45.3305C9.02276 45.5131 10.008 44.4405 10.8658 42.9178C11.5899 41.6342 12.2226 40.0279 12.5634 38.5822C13.3068 35.4222 12.3666 34.2197 10.9378 33.884C9.54751 33.5574 8.20738 34.1695 7.45113 37.1096C7.42926 37.1932 7.40863 37.2781 7.38813 37.3655C6.646 40.5269 6.81838 44.9935 8.24726 45.3305Z" fill="#FFB54E"/>
<path d="M12.5635 38.5823C12.2226 40.0279 11.5898 41.6343 10.8658 42.9178C10.008 44.4405 9.02284 45.5132 8.24734 45.3305C7.88209 45.2444 7.59909 44.8882 7.39209 44.353C7.89372 43.9248 8.41459 43.2123 8.89422 42.3595C9.61834 41.076 10.2511 39.4697 10.5918 38.024C11.1307 35.7348 10.7847 34.4718 10.0105 33.8235C10.3127 33.7849 10.624 33.8107 10.9377 33.884C12.3667 34.2198 13.3069 35.4223 12.5635 38.5823Z" fill="#FF9A1B"/>
<path d="M8.24729 45.3305C9.02279 45.5131 10.008 44.4405 10.8658 42.9178C10.7204 42.384 10.4967 41.8079 10.1957 41.1893C9.52554 39.8105 8.52366 38.3276 7.45104 37.1096C7.42916 37.1932 7.40854 37.2781 7.38804 37.3655C6.64603 40.5269 6.81841 44.9935 8.24729 45.3305Z" fill="#FF9A1B"/>
<path d="M5.67415 37.8358C7.92453 40.1762 10.0538 44.1076 8.99553 45.1249C7.93728 46.1423 4.09252 43.8607 1.84214 41.5203C-0.408238 39.1799 -0.211987 37.6671 0.846139 36.6496C1.90427 35.632 3.42377 35.4954 5.67415 37.8358Z" fill="#FFDBAA"/>
<path d="M8.99553 45.1249C8.65728 45.4503 8.03353 45.4386 7.26828 45.1944C7.55253 43.7346 5.6709 40.4562 3.69677 38.4036C2.61639 37.2795 1.70452 36.7277 0.931641 36.5696C1.98502 35.6269 3.48327 35.5575 5.67352 37.8365C7.92415 40.1759 10.0539 44.1075 8.99553 45.1249Z" fill="#FFC26D"/>
<path d="M47.2557 46.6598V58.3124H16.7441V46.6598C16.7441 45.9489 17.3198 45.3733 18.0293 45.3733H45.9704C46.6801 45.3733 47.2557 45.9489 47.2557 46.6598Z" fill="#EFE2DD"/>
<path d="M47.256 46.6597V58.3132H44.2978V46.6597C44.2978 45.9497 43.7217 45.3735 43.0117 45.3735H45.9699C46.6799 45.3735 47.256 45.9497 47.256 46.6597Z" fill="#CDBFBB"/>
<path d="M52.4906 62.0134H11.5093C10.799 62.0134 10.2231 61.4375 10.2231 60.7273V57.4673C10.2231 56.757 10.799 56.1812 11.5093 56.1812H52.4906C53.2008 56.1812 53.7767 56.757 53.7767 57.4673V60.7273C53.7767 61.4377 53.201 62.0134 52.4906 62.0134Z" fill="#FFF5F5"/>
<path d="M53.7768 57.467V60.7273C53.7768 61.4373 53.2006 62.0134 52.4906 62.0134H49.6509C50.3609 62.0134 50.937 61.4373 50.937 60.7273V57.467C50.937 56.757 50.3609 56.1809 49.6509 56.1809H52.4906C53.2005 56.1809 53.7768 56.757 53.7768 57.467Z" fill="#EFE2DD"/>
<path d="M37.2203 51.621H26.7802C26.2468 51.621 25.8145 51.1886 25.8145 50.6552C25.8145 50.1218 26.2468 49.6895 26.7802 49.6895H37.2203C37.7537 49.6895 38.1861 50.1218 38.1861 50.6552C38.1861 51.1886 37.7537 51.621 37.2203 51.621Z" fill="#FFC26D"/>
<path d="M36.791 29.8603C36.791 31.0397 36.364 32.1213 35.6566 32.9561C34.7769 33.9927 33.4651 34.6512 32.0002 34.6512C30.5354 34.6512 29.2235 33.9927 28.3438 32.9561C27.6365 32.1213 27.2095 31.0397 27.2095 29.8603C27.2095 27.2148 29.3547 25.0696 32.0002 25.0696C34.6457 25.0696 36.791 27.2148 36.791 29.8603Z" fill="#FFDBAA"/>
<path d="M36.791 29.8603C36.791 31.0397 36.364 32.1213 35.6566 32.9561L32.0002 31.0333L28.3438 32.9561C27.6365 32.1213 27.2095 31.0397 27.2095 29.8603C27.2095 27.2148 29.3547 25.0696 32.0002 25.0696C34.6457 25.0696 36.791 27.2148 36.791 29.8603Z" fill="#FFC26D"/>
<path d="M46.7788 16.7119L40.532 22.799L42.0065 31.3962C42.227 32.6838 40.8765 33.6647 39.7191 33.0577L32 28.9994L24.2808 33.0575C23.1235 33.6645 21.773 32.6837 21.9935 31.396L22.7916 26.7414L23.468 22.7989L17.2212 16.7118C16.2865 15.8001 16.8032 14.2101 18.095 14.0231L26.7257 12.7691L30.5864 4.94712C31.164 3.77511 32.836 3.77511 33.4135 4.94712L37.2741 12.7691L40.1496 13.1871L45.9049 14.0231C47.1968 14.2103 47.7134 15.8003 46.7788 16.7119Z" fill="#FFCE8B"/>
<path d="M46.7789 16.7119L40.5321 22.799L42.0066 31.3962C42.2271 32.6838 40.8766 33.6647 39.7192 33.0577L32.0001 28.9994L24.281 33.0575C23.1236 33.6645 21.7731 32.6837 21.9936 31.396L22.7917 26.7414C34.7706 24.5549 38.816 17.9784 40.1499 13.1873L45.9051 14.0233C47.1969 14.2103 47.7135 15.8003 46.7789 16.7119Z" fill="#FFB54E"/>
</svg>
