<svg width="64" height="64" viewBox="0 0 64 64" fill="none" xmlns="http://www.w3.org/2000/svg">
<g clip-path="url(#clip0_126_7620)">
<path d="M58.4445 42.4444C58.4445 44.0947 57.789 45.6773 56.6221 46.8442C55.4552 48.0111 53.8726 48.6667 52.2223 48.6667H11.7779C10.1276 48.6667 8.545 48.0111 7.37811 46.8442C6.21122 45.6773 5.55566 44.0947 5.55566 42.4444V11.8202C5.55566 8.384 14.5639 2 18.0001 2H50.0834C54.8963 2 58.4445 5.59644 58.4445 10.3611V42.4444Z" fill="#C1694F"/>
<path d="M55.3332 48.6667C55.3332 50.3169 54.6776 51.8996 53.5107 53.0665C52.3438 54.2334 50.7612 54.8889 49.111 54.8889H14.8887C13.2385 54.8889 11.6558 54.2334 10.489 53.0665C9.32206 51.8996 8.66651 50.3169 8.66651 48.6667V11.3334C8.66651 4.92604 8.63384 5.11115 16.4443 5.11115H49.111C50.7612 5.11115 52.3438 5.7667 53.5107 6.93359C54.6776 8.10049 55.3332 9.68313 55.3332 11.3334V48.6667Z" fill="#CCD6DD"/>
<path d="M52.2223 50.2222C52.2223 51.4598 51.7307 52.6468 50.8555 53.522C49.9803 54.3972 48.7933 54.8888 47.5557 54.8888H10.2223C8.98465 54.8888 7.79767 54.3972 6.9225 53.522C6.04733 52.6468 5.55566 51.4598 5.55566 50.2222V12.8888C5.55566 11.6512 6.04733 10.4642 6.9225 9.589C7.79767 8.71383 8.98465 8.22217 10.2223 8.22217H47.5557C48.7933 8.22217 49.9803 8.71383 50.8555 9.589C51.7307 10.4642 52.2223 11.6512 52.2223 12.8888V50.2222Z" fill="#E1E8ED"/>
<path d="M52.2224 51.7778C52.2224 53.4281 51.5669 55.0107 50.4 56.1776C49.2331 57.3445 47.6505 58 46.0002 58H13.3336C11.6833 58 10.1007 57.3445 8.93377 56.1776C7.76688 55.0107 7.11133 53.4281 7.11133 51.7778V17.5556C7.11133 15.9054 7.76688 14.3227 8.93377 13.1558C10.1007 11.9889 11.6833 11.3334 13.3336 11.3334H46.0002C47.6505 11.3334 49.2331 11.9889 50.4 13.1558C51.5669 14.3227 52.2224 15.9054 52.2224 17.5556V51.7778Z" fill="#C1694F"/>
<path d="M49.1113 51.7778C49.1113 53.428 48.4558 55.0107 47.2889 56.1776C46.122 57.3445 44.5393 58 42.8891 58H13.3336C11.6833 58 10.1007 57.3445 8.93377 56.1776C7.76688 55.0107 7.11133 53.428 7.11133 51.7778V20.6667C7.11133 19.0164 7.76688 17.4338 8.93377 16.2669C10.1007 15.1 11.6833 14.4445 13.3336 14.4445H43.4102C46.8464 14.4445 49.1113 16.7093 49.1113 20.1456V51.7778Z" fill="#D99E82"/>
<path d="M13.3334 11.3333C10.7077 11.3333 10.6408 8.34356 11.7779 7.05556C13.0721 5.59178 15.0834 5.11111 18.6814 5.11111H21.1112V2H16.8817C10.7077 2 5.55566 5.88889 5.55566 10.3611V51.7778C5.55566 53.428 6.21122 55.0107 7.37811 56.1776C8.545 57.3444 10.1276 58 11.7779 58H14.889V11.3333H13.3334Z" fill="#C1694F"/>
<path d="M42.8891 30.0001C42.8891 30.8252 42.5613 31.6165 41.9779 32.1999C41.3944 32.7834 40.6031 33.1112 39.778 33.1112H24.2224C23.3973 33.1112 22.606 32.7834 22.0226 32.1999C21.4391 31.6165 21.1113 30.8252 21.1113 30.0001V26.8889C21.1113 26.0638 21.4391 25.2725 22.0226 24.6891C22.606 24.1056 23.3973 23.7778 24.2224 23.7778H39.778C40.6031 23.7778 41.3944 24.1056 41.9779 24.6891C42.5613 25.2725 42.8891 26.0638 42.8891 26.8889V30.0001Z" fill="#E1E8ED"/>
<g clip-path="url(#clip1_126_7620)">
<path d="M58.4445 42.4444C58.4445 44.0947 57.789 45.6773 56.6221 46.8442C55.4552 48.0111 53.8726 48.6667 52.2223 48.6667H11.7779C10.1276 48.6667 8.545 48.0111 7.37811 46.8442C6.21122 45.6773 5.55566 44.0947 5.55566 42.4444V11.8202C5.55566 8.384 14.5639 2 18.0001 2H50.0834C54.8963 2 58.4445 5.59644 58.4445 10.3611V42.4444Z" fill="#57B7FB"/>
<path d="M55.3332 48.6667C55.3332 50.3169 54.6776 51.8996 53.5107 53.0665C52.3438 54.2334 50.7612 54.8889 49.111 54.8889H14.8887C13.2385 54.8889 11.6558 54.2334 10.489 53.0665C9.32206 51.8996 8.66651 50.3169 8.66651 48.6667V11.3334C8.66651 4.92604 8.63384 5.11115 16.4443 5.11115H49.111C50.7612 5.11115 52.3438 5.7667 53.5107 6.93359C54.6776 8.10049 55.3332 9.68313 55.3332 11.3334V48.6667Z" fill="#CCD6DD"/>
<path d="M52.2223 50.2222C52.2223 51.4598 51.7307 52.6468 50.8555 53.522C49.9803 54.3972 48.7933 54.8888 47.5557 54.8888H10.2223C8.98465 54.8888 7.79767 54.3972 6.9225 53.522C6.04733 52.6468 5.55566 51.4598 5.55566 50.2222V12.8888C5.55566 11.6512 6.04733 10.4642 6.9225 9.589C7.79767 8.71383 8.98465 8.22217 10.2223 8.22217H47.5557C48.7933 8.22217 49.9803 8.71383 50.8555 9.589C51.7307 10.4642 52.2223 11.6512 52.2223 12.8888V50.2222Z" fill="#E1E8ED"/>
<path d="M52.2224 51.7778C52.2224 53.4281 51.5669 55.0107 50.4 56.1776C49.2331 57.3445 47.6505 58 46.0002 58H13.3336C11.6833 58 10.1007 57.3445 8.93377 56.1776C7.76688 55.0107 7.11133 53.4281 7.11133 51.7778V17.5556C7.11133 15.9054 7.76688 14.3227 8.93377 13.1558C10.1007 11.9889 11.6833 11.3334 13.3336 11.3334H46.0002C47.6505 11.3334 49.2331 11.9889 50.4 13.1558C51.5669 14.3227 52.2224 15.9054 52.2224 17.5556V51.7778Z" fill="#57B7FB"/>
<path d="M49.1113 51.7778C49.1113 53.428 48.4558 55.0107 47.2889 56.1776C46.122 57.3445 44.5393 58 42.8891 58H13.3336C11.6833 58 10.1007 57.3445 8.93377 56.1776C7.76688 55.0107 7.11133 53.428 7.11133 51.7778V20.6667C7.11133 19.0164 7.76688 17.4338 8.93377 16.2669C10.1007 15.1 11.6833 14.4445 13.3336 14.4445H43.4102C46.8464 14.4445 49.1113 16.7093 49.1113 20.1456V51.7778Z" fill="#90D5FF"/>
<path d="M13.3334 11.3333C10.7077 11.3333 10.6408 8.34356 11.7779 7.05556C13.0721 5.59178 15.0834 5.11111 18.6814 5.11111H21.1112V2H16.8817C10.7077 2 5.55566 5.88889 5.55566 10.3611V51.7778C5.55566 53.428 6.21122 55.0107 7.37811 56.1776C8.545 57.3444 10.1277 58 11.7779 58H14.889V11.3333H13.3334Z" fill="#57B7FB"/>
</g>
</g>
<mask id="mask0_126_7620" style="mask-type:alpha" maskUnits="userSpaceOnUse" x="21" y="22" width="22" height="22">
<rect x="21" y="22" width="22" height="22" fill="#D9D9D9"/>
</mask>
<g mask="url(#mask0_126_7620)">
<path d="M32 41.25C30.075 41.25 28.3715 40.6656 26.8896 39.4969C25.4076 38.3281 24.4451 36.8347 24.0021 35.0167C23.941 34.7875 23.9868 34.5774 24.1396 34.3865C24.2924 34.1955 24.4986 34.0847 24.7583 34.0542C25.0028 34.0236 25.2243 34.0694 25.4229 34.1917C25.6215 34.3139 25.759 34.4972 25.8354 34.7417C26.2021 36.1167 26.9583 37.2396 28.1042 38.1104C29.25 38.9812 30.5486 39.4167 32 39.4167C33.7875 39.4167 35.3038 38.7941 36.549 37.549C37.7941 36.3038 38.4167 34.7875 38.4167 33C38.4167 31.2125 37.7941 29.6962 36.549 28.451C35.3038 27.2059 33.7875 26.5833 32 26.5833C30.9458 26.5833 29.9604 26.8278 29.0438 27.3167C28.1271 27.8056 27.3556 28.4778 26.7292 29.3333H28.3333C28.5931 29.3333 28.8108 29.4212 28.9865 29.5969C29.1622 29.7726 29.25 29.9903 29.25 30.25C29.25 30.5097 29.1622 30.7274 28.9865 30.9031C28.8108 31.0788 28.5931 31.1667 28.3333 31.1667H24.6667C24.4069 31.1667 24.1892 31.0788 24.0135 30.9031C23.8378 30.7274 23.75 30.5097 23.75 30.25V26.5833C23.75 26.3236 23.8378 26.1059 24.0135 25.9302C24.1892 25.7545 24.4069 25.6667 24.6667 25.6667C24.9264 25.6667 25.1441 25.7545 25.3198 25.9302C25.4955 26.1059 25.5833 26.3236 25.5833 26.5833V27.8208C26.3625 26.8431 27.3135 26.0868 28.4365 25.5521C29.5594 25.0174 30.7472 24.75 32 24.75C33.1458 24.75 34.2191 24.9677 35.2198 25.4031C36.2205 25.8385 37.0913 26.4267 37.8323 27.1677C38.5733 27.9087 39.1615 28.7795 39.5969 29.7802C40.0323 30.7809 40.25 31.8542 40.25 33C40.25 34.1458 40.0323 35.2191 39.5969 36.2198C39.1615 37.2205 38.5733 38.0913 37.8323 38.8323C37.0913 39.5733 36.2205 40.1615 35.2198 40.5969C34.2191 41.0323 33.1458 41.25 32 41.25ZM32.9167 32.6333L35.2083 34.925C35.3764 35.0931 35.4604 35.3069 35.4604 35.5667C35.4604 35.8264 35.3764 36.0403 35.2083 36.2083C35.0403 36.3764 34.8264 36.4604 34.5667 36.4604C34.3069 36.4604 34.0931 36.3764 33.925 36.2083L31.3583 33.6417C31.2667 33.55 31.1979 33.4469 31.1521 33.3323C31.1062 33.2177 31.0833 33.0993 31.0833 32.9771V29.3333C31.0833 29.0736 31.1712 28.8559 31.3469 28.6802C31.5226 28.5045 31.7403 28.4167 32 28.4167C32.2597 28.4167 32.4774 28.5045 32.6531 28.6802C32.8288 28.8559 32.9167 29.0736 32.9167 29.3333V32.6333Z" fill="#57B7FB"/>
</g>
<defs>
<clipPath id="clip0_126_7620">
<rect width="56" height="56" fill="white" transform="translate(4 2)"/>
</clipPath>
<clipPath id="clip1_126_7620">
<rect width="56" height="56" fill="white" transform="translate(4 2)"/>
</clipPath>
</defs>
</svg>
