<svg width="64" height="64" viewBox="0 0 64 64" fill="none" xmlns="http://www.w3.org/2000/svg">
<g clip-path="url(#clip0_73_5827)">
<g clip-path="url(#clip1_73_5827)">
<path d="M32 64C49.6731 64 64 49.6731 64 32C64 14.3269 49.6731 0 32 0C14.3269 0 0 14.3269 0 32C0 49.6731 14.3269 64 32 64Z" fill="#263740"/>
<path d="M1.95117 43.026C6.44467 55.2665 18.2022 64 32.0002 64C32.3442 64 32.6842 63.985 33.0257 63.974C28.5322 51.7335 16.7747 43 2.97667 43C2.63317 43 2.29267 43.015 1.95117 43.026Z" fill="#E6E6E6"/>
<path d="M33.1143 20.1976C32.1288 18.9616 29.3628 19.5501 26.1978 21.6676C23.9983 23.2196 20.3328 29.7821 19.9353 31.3126C19.5378 32.8431 22.3863 32.4661 22.9958 32.1076C23.9603 31.5411 26.6833 27.3476 26.9553 26.9291C27.2278 26.5101 29.0298 26.4876 30.4138 26.1936C30.8103 24.6631 32.5703 21.0361 33.1143 20.1976Z" fill="#CC584C"/>
<path d="M44.0169 27.2786C45.5479 27.6756 46.1354 30.4421 45.4869 34.1946C44.9629 36.8356 40.4589 42.8536 39.2239 43.8391C37.9869 44.8261 37.1734 42.0696 37.2524 41.3681C37.3779 40.2556 40.1009 36.0636 40.3734 35.6441C40.6459 35.2251 39.9324 33.5696 39.6374 32.1861C40.8744 31.1986 43.4724 28.1166 44.0169 27.2786Z" fill="#CC584C"/>
<path d="M53.8167 0.255095C52.5577 -0.561905 44.3842 0.0920954 38.1192 9.7366C32.9452 17.7046 29.9937 25.9216 29.8682 27.0326C31.1267 27.8506 34.4812 30.0281 34.4812 30.0281C34.4812 30.0281 37.8362 32.2061 39.0942 33.0231C40.0592 32.4571 46.6372 25.9981 51.5402 18.4501C57.8022 8.8046 55.0732 1.0726 53.8167 0.255095Z" fill="#E6E6E6"/>
<path d="M45.645 17.835C48.4064 17.835 50.645 15.5964 50.645 12.835C50.645 10.0735 48.4064 7.83496 45.645 7.83496C42.8836 7.83496 40.645 10.0735 40.645 12.835C40.645 15.5964 42.8836 17.835 45.645 17.835Z" fill="#263740"/>
<path d="M44.0114 15.3509C42.6249 14.4489 42.2289 12.5884 43.1289 11.2009C44.0309 9.81345 45.8909 9.41795 47.2799 10.3179C48.6659 11.2194 49.0614 13.0799 48.1619 14.4684C47.2604 15.8564 45.4004 16.2519 44.0114 15.3509Z" fill="#C2E2F2"/>
<path d="M50.5481 5.28694C52.0881 6.28694 53.7726 6.88644 55.4796 7.11594C55.6556 3.27694 54.5116 0.706936 53.8166 0.253436C53.1191 -0.197564 50.3061 -0.196564 46.8706 1.52444C47.7746 2.99094 49.0081 4.28644 50.5481 5.28694Z" fill="#CC584C"/>
<path d="M38.2992 36.0834C37.9992 36.5449 37.3767 36.6774 36.9152 36.3779L27.6902 30.3879C27.2287 30.0874 27.0962 29.4649 27.3957 29.0034L28.4857 27.3264C28.7857 26.8654 29.4077 26.7324 29.8697 27.0324L39.0942 33.0234C39.5562 33.3234 39.6882 33.9454 39.3892 34.4079L38.2992 36.0834Z" fill="#CC584C"/>
<path d="M31.2952 30.3439C30.9952 30.8064 30.6272 31.3924 30.2432 32.0449L34.7827 34.9929C35.2232 34.3764 35.6082 33.8004 35.9087 33.3384C36.2092 32.8764 36.5767 32.2904 36.9607 31.6384L32.4222 28.6904C31.9807 29.3064 31.5947 29.8814 31.2952 30.3439Z" fill="#BF5347"/>
<path d="M28.5285 30.9314C25.22 36.0254 21.054 46.3469 23.254 47.7754C25.453 49.2039 33.187 41.2014 36.496 36.1049L28.5285 30.9314Z" fill="#FFD464"/>
<path d="M29.3671 31.4761C26.0586 36.5701 24.7846 41.6161 26.5211 42.7436C28.2581 43.8716 32.3486 40.6546 35.6571 35.5611L29.3671 31.4761Z" fill="#F2B255"/>
<path d="M32.1403 30.8872C29.5839 34.8242 28.1686 38.4425 28.9792 38.9688C29.7898 39.4952 32.5193 36.7303 35.0758 32.7933C37.6322 28.8563 39.0475 25.2381 38.2369 24.7117C37.4263 24.1854 34.6967 26.9502 32.1403 30.8872Z" fill="#CC584C"/>
<path d="M8.6892 47.114C8.22135 48.2652 9.08637 49.7041 10.6213 50.3279C12.1562 50.9517 13.7797 50.5242 14.2476 49.373C14.7155 48.2218 13.8504 46.7829 12.3155 46.1591C10.7806 45.5353 9.15706 45.9628 8.6892 47.114Z" fill="#CCCCCC"/>
<path d="M11.6298 50.3345C10.0948 49.711 9.22934 48.272 9.69734 47.1205C9.96484 46.4615 10.6173 46.0485 11.4093 45.9255C10.1903 45.7505 9.07234 46.198 8.69734 47.1205C8.22934 48.272 9.09484 49.711 10.6298 50.3345C11.2863 50.601 11.9528 50.665 12.5443 50.574C12.2408 50.53 11.9343 50.4585 11.6298 50.3345Z" fill="#B3B3B3"/>
<path d="M18.1094 49.0471C17.5281 49.6182 17.6744 50.7095 18.4361 51.4848C19.1977 52.26 20.2863 52.4255 20.8675 51.8545C21.4488 51.2835 21.3025 50.1921 20.5408 49.4169C19.7792 48.6416 18.6906 48.4761 18.1094 49.0471Z" fill="#CCCCCC"/>
<path d="M19.0253 51.7284C18.2648 50.9539 18.1188 49.8624 18.7003 49.2909C19.0323 48.9634 19.5323 48.8854 20.0418 49.0174C19.3538 48.5949 18.5643 48.5714 18.0983 49.0289C17.5168 49.6014 17.6628 50.6919 18.4238 51.4669C18.7493 51.7984 19.1348 52.0114 19.5148 52.1094C19.3428 52.0059 19.1768 51.8829 19.0253 51.7284Z" fill="#B3B3B3"/>
<path d="M15.5829 55.1199C15.2469 56.3095 16.2604 57.637 17.8465 58.085C19.4326 58.5329 20.9908 57.9317 21.3267 56.7421C21.6627 55.5525 20.6493 54.225 19.0631 53.7771C17.477 53.3291 15.9189 53.9303 15.5829 55.1199Z" fill="#CCCCCC"/>
<path d="M18.8555 57.978C17.271 57.53 16.258 56.202 16.595 55.0125C16.786 54.3315 17.386 53.8535 18.1555 53.6445C16.932 53.6055 15.8745 54.1695 15.605 55.1225C15.2685 56.3115 16.282 57.64 17.8675 58.0875C18.5455 58.2795 19.2115 58.269 19.787 58.1145C19.4835 58.1045 19.171 58.0675 18.8555 57.978Z" fill="#B3B3B3"/>
<path d="M13.9766 10.5C13.9766 12.5 13.4766 13 11.4766 13C13.4766 13 13.9766 13.5 13.9766 15.5C13.9766 13.5 14.4766 13 16.4766 13C14.4766 13 13.9766 12.5 13.9766 10.5Z" fill="#FFD464"/>
<path d="M7.47656 25C7.47656 27 6.97656 27.5 4.97656 27.5C6.97656 27.5 7.47656 28 7.47656 30C7.47656 28 7.97656 27.5 9.97656 27.5C7.97656 27.5 7.47656 27 7.47656 25Z" fill="#FFD464"/>
<path d="M14.4766 34C14.4766 36 13.9766 36.5 11.9766 36.5C13.9766 36.5 14.4766 37 14.4766 39C14.4766 37 14.9766 36.5 16.9766 36.5C14.9766 36.5 14.4766 36 14.4766 34Z" fill="#FFD464"/>
<path d="M40.9766 50.5C40.9766 52.5 40.4766 53 38.4766 53C40.4766 53 40.9766 53.5 40.9766 55.5C40.9766 53.5 41.4766 53 43.4766 53C41.4766 53 40.9766 52.5 40.9766 50.5Z" fill="#FFD464"/>
<path d="M58.9766 39C58.9766 41 58.4766 41.5 56.4766 41.5C58.4766 41.5 58.9766 42 58.9766 44C58.9766 42 59.4766 41.5 61.4766 41.5C59.4766 41.5 58.9766 41 58.9766 39Z" fill="#FFD464"/>
<path d="M57.4766 21.5C57.4766 23.5 56.9766 24 54.9766 24C56.9766 24 57.4766 24.5 57.4766 26.5C57.4766 24.5 57.9766 24 59.9766 24C57.9766 24 57.4766 23.5 57.4766 21.5Z" fill="#FFD464"/>
<path d="M32.4766 3.5C32.4766 5.5 31.9766 6 29.9766 6C31.9766 6 32.4766 6.5 32.4766 8.5C32.4766 6.5 32.9766 6 34.9766 6C32.9766 6 32.4766 5.5 32.4766 3.5Z" fill="#FFD464"/>
<path d="M23.9766 14C23.9766 16 23.4766 16.5 21.4766 16.5C23.4766 16.5 23.9766 17 23.9766 19C23.9766 17 24.4766 16.5 26.4766 16.5C24.4766 16.5 23.9766 16 23.9766 14Z" fill="#FFD464"/>
</g>
</g>
<defs>
<clipPath id="clip0_73_5827">
<rect width="64" height="64" fill="white"/>
</clipPath>
<clipPath id="clip1_73_5827">
<rect width="64" height="64" fill="white"/>
</clipPath>
</defs>
</svg>
