<svg width="64" height="64" viewBox="0 0 64 64" fill="none" xmlns="http://www.w3.org/2000/svg">
<g clip-path="url(#clip0_113_6627)">
<path d="M64 32C64 49.6729 49.6729 64 32 64C14.3289 64 0 49.6729 0 32C0 14.3289 14.3289 0 32 0C49.6729 0 64 14.3289 64 32Z" fill="#FFCC4D"/>
<path d="M20.4444 36.4444C22.899 36.4444 24.8889 33.6587 24.8889 30.2222C24.8889 26.7858 22.899 24 20.4444 24C17.9898 24 16 26.7858 16 30.2222C16 33.6587 17.9898 36.4444 20.4444 36.4444Z" fill="#664500"/>
<path d="M43.5558 36.4444C46.0104 36.4444 48.0002 33.6587 48.0002 30.2222C48.0002 26.7858 46.0104 24 43.5558 24C41.1012 24 39.1113 26.7858 39.1113 30.2222C39.1113 33.6587 41.1012 36.4444 43.5558 36.4444Z" fill="#664500"/>
<path d="M10.6647 23.9999C10.3347 23.9996 10.0113 23.9074 9.73068 23.7337C9.4501 23.56 9.2234 23.3116 9.07596 23.0164C8.92853 22.7212 8.86618 22.3907 8.8959 22.062C8.92561 21.7334 9.04623 21.4195 9.24423 21.1555C15.0433 13.4221 22.7838 13.3333 23.1109 13.3333C23.3444 13.3328 23.5756 13.3783 23.7915 13.4672C24.0074 13.5561 24.2036 13.6867 24.369 13.8514C24.5344 14.0162 24.6658 14.2119 24.7555 14.4274C24.8453 14.6429 24.8918 14.874 24.8922 15.1075C24.8927 15.3409 24.8472 15.5722 24.7583 15.7881C24.6694 16.0039 24.5388 16.2002 24.374 16.3656C24.2093 16.531 24.0136 16.6624 23.7981 16.7521C23.5826 16.8419 23.3515 16.8883 23.118 16.8888C22.8425 16.8924 16.7749 17.0417 12.0887 23.2888C11.9231 23.5101 11.7081 23.6896 11.4609 23.813C11.2137 23.9365 10.941 24.0005 10.6647 23.9999ZM53.3349 23.9999C53.0586 24.0005 52.7859 23.9365 52.5387 23.813C52.2914 23.6896 52.0765 23.5101 51.9109 23.2888C47.2158 17.0293 41.1358 16.8906 40.878 16.8888C40.408 16.8837 39.9592 16.693 39.6292 16.3583C39.2992 16.0237 39.1148 15.5721 39.1162 15.1021C39.1172 14.6327 39.3043 14.1828 39.6366 13.8511C39.9689 13.5195 40.4192 13.3333 40.8887 13.3333C41.2158 13.3333 48.9544 13.4221 54.7553 21.1555C54.9533 21.4195 55.074 21.7334 55.1037 22.062C55.1334 22.3907 55.071 22.7212 54.9236 23.0164C54.7762 23.3116 54.5495 23.56 54.2689 23.7337C53.9883 23.9074 53.6649 23.9996 53.3349 23.9999ZM41.7509 50.4515C41.7313 50.3733 39.7153 42.6666 31.9998 42.6666C24.2842 42.6666 22.2682 50.3733 22.2487 50.4515C22.2045 50.6356 22.2207 50.8291 22.295 51.0032C22.3693 51.1774 22.4976 51.323 22.6611 51.4186C22.8264 51.5148 23.0179 51.5564 23.2082 51.5372C23.3985 51.518 23.5779 51.4392 23.7207 51.3119C23.7367 51.2977 25.5216 49.7777 31.9998 49.7777C38.382 49.7777 40.2078 51.2533 40.2771 51.3119C40.4167 51.4442 40.5954 51.5276 40.7865 51.5496C40.9775 51.5717 41.1705 51.5312 41.3366 51.4343C41.5027 51.3373 41.6328 51.1891 41.7075 51.0119C41.7822 50.8347 41.7974 50.6381 41.7509 50.4515Z" fill="#664500"/>
<path d="M28.4443 55.111C28.4443 60.0212 24.4656 63.9999 19.5554 63.9999C14.6452 63.9999 10.6665 60.0212 10.6665 55.111C10.6665 50.2008 17.7776 37.3333 19.5554 37.3333C21.3332 37.3333 28.4443 50.2008 28.4443 55.111Z" fill="#5DADEC"/>
</g>
<defs>
<clipPath id="clip0_113_6627">
<rect width="64" height="64" fill="white"/>
</clipPath>
</defs>
</svg>
