<svg width="64" height="64" viewBox="0 0 64 64" fill="none" xmlns="http://www.w3.org/2000/svg">
<path fill-rule="evenodd" clip-rule="evenodd" d="M2.20441 26.6987C2.63108 27.1236 4.76085 28.4 5.18574 29.6765C5.61241 30.9511 6.46574 39.1111 9.02219 41.2391C11.6586 43.4293 21.6035 42.6133 23.5075 41.6658C27.7689 39.5413 28.2915 32.6791 29.0453 29.6747C29.4702 27.9733 32.0266 27.9733 32.0266 27.9733C32.0266 27.9733 34.5831 27.9733 35.0097 29.6729C35.7635 32.6791 36.2897 39.5609 40.5475 41.6818C42.4533 42.6329 52.3982 43.4489 55.0382 41.2587C57.5911 39.1307 58.4426 30.9493 58.8693 29.6729C59.2924 28.3982 61.4257 27.1218 61.8506 26.6969C62.2791 26.272 62.2791 24.5707 61.8506 24.144C60.9991 23.2942 50.9457 22.5369 40.1209 23.7191C37.9609 23.9556 37.1395 24.5689 32.0249 24.5689C26.9137 24.5689 26.0889 23.9538 23.9306 23.7191C13.1129 22.5387 3.05774 23.296 2.20441 24.1458C1.77952 24.5707 1.77952 26.2738 2.20441 26.6987Z" fill="#31373D"/>
</svg>
