<svg width="64" height="64" viewBox="0 0 64 64" fill="none" xmlns="http://www.w3.org/2000/svg">
<g clip-path="url(#clip0_93_7461)">
<path d="M32 64C49.6731 64 64 49.6731 64 32C64 14.3269 49.6731 0 32 0C14.3269 0 0 14.3269 0 32C0 49.6731 14.3269 64 32 64Z" fill="#DD2E44"/>
<path d="M32 56C45.2548 56 56 45.2548 56 32C56 18.7452 45.2548 8 32 8C18.7452 8 8 18.7452 8 32C8 45.2548 18.7452 56 32 56Z" fill="white"/>
<path d="M31.9999 49.7777C41.8183 49.7777 49.7777 41.8183 49.7777 31.9999C49.7777 22.1815 41.8183 14.2222 31.9999 14.2222C22.1815 14.2222 14.2222 22.1815 14.2222 31.9999C14.2222 41.8183 22.1815 49.7777 31.9999 49.7777Z" fill="#DD2E44"/>
<path d="M32.0002 42.6666C37.8912 42.6666 42.6668 37.891 42.6668 31.9999C42.6668 26.1089 37.8912 21.3333 32.0002 21.3333C26.1091 21.3333 21.3335 26.1089 21.3335 31.9999C21.3335 37.891 26.1091 42.6666 32.0002 42.6666Z" fill="white"/>
<path d="M31.9998 37.3334C34.9454 37.3334 37.3332 34.9456 37.3332 32.0001C37.3332 29.0546 34.9454 26.6667 31.9998 26.6667C29.0543 26.6667 26.6665 29.0546 26.6665 32.0001C26.6665 34.9456 29.0543 37.3334 31.9998 37.3334Z" fill="#DD2E44"/>
<path opacity="0.2" d="M32.4266 32.5012L55.7937 53.3972C55.7937 53.3972 51.0879 59.399 41.767 62.4799L31.2515 32.7466L32.4266 32.5012Z" fill="black"/>
<path d="M32.5225 33.7778C32.172 33.779 31.8291 33.6759 31.5374 33.4817C31.2457 33.2875 31.0183 33.0109 30.8841 32.6871C30.75 32.3634 30.7151 32.007 30.784 31.6634C30.8528 31.3198 31.0223 31.0044 31.2709 30.7574L32.2718 29.7565C32.6035 29.4245 33.0535 29.238 33.5227 29.2378C33.992 29.2376 34.4421 29.4239 34.774 29.7556C35.1059 30.0873 35.2925 30.5372 35.2927 31.0065C35.2929 31.4758 35.1066 31.9259 34.7749 32.2578L33.7722 33.2587C33.6087 33.4236 33.4139 33.5545 33.1994 33.6436C32.9849 33.7327 32.7548 33.7783 32.5225 33.7778Z" fill="#FFAC33"/>
<path d="M42.6949 12.4106C41.9784 16.1066 42.6949 20.7501 42.6949 20.7501L55.2353 7.61591C55.7527 5.03102 54.2967 0.625692 52.1811 0.081692C50.0655 -0.462308 44.9296 1.50925 42.6949 12.4106ZM51.5891 21.3048C47.8931 22.0212 43.2495 21.3048 43.2495 21.3048L56.3838 8.76436C58.9687 8.24702 63.374 9.70302 63.918 11.8186C64.462 13.9341 62.4904 19.0701 51.5891 21.3048Z" fill="#55ACEE"/>
<path d="M58.3074 7.97343L37.6461 31.2659C37.0025 31.9094 34.6719 32.8339 33.1839 31.3477C31.6976 29.8614 32.439 27.6499 33.0825 27.0045L56.5599 6.2241C56.5599 6.2241 57.7616 5.09521 58.6203 5.95388C59.479 6.81255 58.3074 7.97343 58.3074 7.97343Z" fill="#3A87C2"/>
</g>
<defs>
<clipPath id="clip0_93_7461">
<rect width="64" height="64" fill="white"/>
</clipPath>
</defs>
</svg>
