<svg width="64" height="64" viewBox="0 0 64 64" fill="none" xmlns="http://www.w3.org/2000/svg">
<g clip-path="url(#clip0_93_7313)">
<path d="M60.5102 31.6453C60.5102 47.464 47.8613 60.2871 32.2542 60.2871C16.6507 60.2871 4 47.464 4 31.6453C4 15.8231 16.6507 3 32.2542 3C47.8596 2.99822 60.5102 15.8231 60.5102 31.6453Z" fill="#77C7EF"/>
<path d="M53.4454 31.6453C53.4454 43.5102 43.9609 53.128 32.2543 53.128C20.5512 53.128 11.0649 43.5102 11.0649 31.6453C11.0649 19.7787 20.5512 10.1609 32.2543 10.1609C43.9609 10.1591 53.4454 19.7787 53.4454 31.6453Z" fill="#E6E7E8"/>
<path d="M40.9279 32.7387H32.039C31.5675 32.7387 31.1153 32.5514 30.7819 32.218C30.4485 31.8846 30.2612 31.4324 30.2612 30.9609V14.9609C30.2612 14.4894 30.4485 14.0372 30.7819 13.7038C31.1153 13.3704 31.5675 13.1831 32.039 13.1831C32.5105 13.1831 32.9627 13.3704 33.2961 13.7038C33.6295 14.0372 33.8168 14.4894 33.8168 14.9609V29.1831H40.9279C41.3994 29.1831 41.8516 29.3704 42.185 29.7038C42.5184 30.0372 42.7057 30.4894 42.7057 30.9609C42.7057 31.4324 42.5184 31.8846 42.185 32.218C41.8516 32.5514 41.3994 32.7387 40.9279 32.7387Z" fill="#414042"/>
</g>
<defs>
<clipPath id="clip0_93_7313">
<rect width="64" height="64" fill="white"/>
</clipPath>
</defs>
</svg>
