<svg width="64" height="64" viewBox="0 0 64 64" fill="none" xmlns="http://www.w3.org/2000/svg">
<path d="M62.999 27.5209L49.8961 40.2889L52.9889 58.3218C53.4515 61.0227 50.6187 63.0801 48.1911 61.8069L31.9998 53.2945L15.8086 61.8066C13.3809 63.0798 10.5482 61.0224 11.0107 58.3216L12.6848 48.5583L14.1035 40.2887L1.00067 27.5206C-0.96001 25.6084 0.123896 22.2733 2.8334 21.8811L20.9368 19.2508L29.0347 2.84375C30.2463 0.385418 33.7534 0.385418 34.9647 2.84375L43.0626 19.2508L49.0941 20.1275L61.166 21.8811C63.8758 22.2736 64.9594 25.6087 62.999 27.5209Z" fill="#FFCE8B"/>
<path d="M62.9993 27.5208L49.8964 40.2888L52.9892 58.3217C53.4517 61.0225 50.619 63.08 48.1914 61.8068L32.0001 53.2944L15.8089 61.8065C13.3812 63.0797 10.5485 61.0223 11.011 58.3214L12.6851 48.5581C37.8114 43.9718 46.2967 30.1773 49.0946 20.1277L61.1665 21.8812C63.876 22.2735 64.9597 25.6086 62.9993 27.5208Z" fill="#FFB54E"/>
</svg>
